<svg width="9" height="29" viewBox="0 0 9 29" fill="none" xmlns="http://www.w3.org/2000/svg">
<g clip-path="url(#clip0)">
<path d="M6.40307 5.81825H6.54405C6.62728 5.81825 6.70709 5.78666 6.76594 5.73043C6.82479 5.67421 6.85785 5.59795 6.85785 5.51843V2.9113C6.85908 2.8714 6.85184 2.83168 6.83657 2.79453C6.82129 2.75738 6.7983 2.72357 6.76897 2.69515C6.73965 2.66672 6.7046 2.64427 6.66594 2.62914C6.62729 2.61402 6.58582 2.60653 6.54405 2.60713H5.69817V0.434522H6.4531C6.51341 0.434522 6.57124 0.411632 6.61389 0.370888C6.65653 0.330143 6.68049 0.274882 6.68049 0.217261C6.68049 0.15964 6.65653 0.104379 6.61389 0.0636343C6.57124 0.0228899 6.51341 0 6.4531 0L3.52889 0C2.33072 0.00100558 1.15353 0.300543 0.113534 0.869044C0.087517 0.882995 0.0646971 0.901796 0.0464273 0.924331C0.0281574 0.946866 0.0148096 0.972677 0.00717527 1.00023C-0.000459034 1.02779 -0.00222436 1.05653 0.00198398 1.08475C0.00619232 1.11297 0.0162886 1.1401 0.0316742 1.16452C0.051515 1.19736 0.0800041 1.22466 0.11431 1.24372C0.148617 1.26277 0.187545 1.27292 0.227227 1.27315C0.26743 1.2739 0.306974 1.26332 0.340921 1.24273C1.31292 0.71532 2.4111 0.436912 3.52889 0.434522V2.60713H2.67847C2.59645 2.60713 2.51779 2.63826 2.45979 2.69367C2.4018 2.74909 2.36922 2.82424 2.36922 2.90261V5.50974C2.36921 5.58851 2.40164 5.66412 2.45951 5.72022C2.51738 5.77633 2.59603 5.80842 2.67847 5.80956H2.82399C2.04991 6.13917 1.39254 6.67629 0.931615 7.35579C0.470687 8.03529 0.226 8.82797 0.227227 9.6377V28.1136C0.22719 28.2295 0.251448 28.3444 0.298572 28.4512C0.345697 28.5581 0.414734 28.6549 0.501617 28.7359C0.5885 28.8169 0.69147 28.8804 0.80446 28.9228C0.917449 28.9652 1.03817 28.9855 1.15952 28.9826H8.06755C8.18889 28.9855 8.30962 28.9652 8.42261 28.9228C8.5356 28.8804 8.63857 28.8169 8.72545 28.7359C8.81233 28.6549 8.88137 28.5581 8.92849 28.4512C8.97562 28.3444 8.99988 28.2295 8.99984 28.1136V9.6377C8.99931 8.82944 8.7538 8.03863 8.29297 7.36084C7.83215 6.68304 7.17574 6.14726 6.40307 5.81825Z" fill="black"/>
</g>
<defs>
<clipPath id="clip0">
<rect width="9" height="29" fill="white"/>
</clipPath>
</defs>
</svg>
