<svg width="22" height="18" viewBox="0 0 22 18" fill="none" xmlns="http://www.w3.org/2000/svg">
<g clip-path="url(#clip0)">
<path d="M21.3201 1.83C21.2756 1.75893 21.2136 1.70047 21.1401 1.6602C21.0665 1.61993 20.9839 1.5992 20.9001 1.6H7.30005C7.16744 1.6 7.04027 1.65268 6.9465 1.74645C6.85273 1.84021 6.80005 1.96739 6.80005 2.1C6.80005 2.23261 6.85273 2.35978 6.9465 2.45355C7.04027 2.54732 7.16744 2.6 7.30005 2.6H20.1401L17.4701 8.8H6.68005L4.78005 2C4.76147 1.92588 4.72546 1.85727 4.67502 1.79987C4.62458 1.74248 4.56117 1.69795 4.49005 1.67L0.690052 -1.18092e-06C0.625248 -0.0320711 0.554149 -0.0494016 0.481856 -0.0507495C0.409562 -0.0520974 0.337867 -0.0374293 0.271912 -0.0077973C0.205957 0.0218346 0.147377 0.065696 0.100375 0.12064C0.0533724 0.175585 0.0191124 0.240251 5.22248e-05 0.309999C-0.0320177 0.374803 -0.0493482 0.445902 -0.0506961 0.518195C-0.052044 0.590489 -0.0373759 0.662184 -0.0077439 0.728139C0.0218881 0.794094 0.0657494 0.852674 0.120694 0.899676C0.175638 0.946679 0.240304 0.980939 0.310052 0.999999L3.88005 2.47L5.82005 9.47C5.8441 9.5421 5.88528 9.6073 5.94005 9.66V9.74L5.34005 12.54C5.32522 12.6127 5.32674 12.6877 5.34449 12.7597C5.36224 12.8317 5.39578 12.8988 5.44268 12.9563C5.48959 13.0137 5.54868 13.06 5.61568 13.0918C5.68267 13.1235 5.7559 13.14 5.83005 13.14H7.00005C6.64846 13.3371 6.35514 13.6236 6.14972 13.9704C5.94431 14.3172 5.83407 14.7121 5.83016 15.1152C5.82625 15.5183 5.9288 15.9152 6.12745 16.266C6.3261 16.6167 6.61381 16.9088 6.96151 17.1127C7.30921 17.3167 7.70457 17.4252 8.10766 17.4274C8.51074 17.4296 8.90726 17.3253 9.25714 17.1252C9.60703 16.925 9.89788 16.6361 10.1003 16.2875C10.3028 15.9389 10.4096 15.5431 10.4101 15.14C10.4044 14.7304 10.2904 14.3295 10.0797 13.9782C9.86888 13.6269 9.56884 13.3377 9.21005 13.14H13.7001C13.3485 13.3371 13.0551 13.6236 12.8497 13.9704C12.6443 14.3172 12.5341 14.7121 12.5302 15.1152C12.5263 15.5183 12.6288 15.9152 12.8275 16.266C13.0261 16.6167 13.3138 16.9088 13.6615 17.1127C14.0092 17.3167 14.4046 17.4252 14.8077 17.4274C15.2107 17.4296 15.6073 17.3253 15.9571 17.1252C16.307 16.925 16.5979 16.6361 16.8003 16.2875C17.0028 15.9389 17.1096 15.5431 17.1101 15.14C17.1147 14.7331 17.0093 14.3325 16.8052 13.9804C16.601 13.6284 16.3056 13.338 15.9501 13.14H16.6101C16.7427 13.14 16.8698 13.0873 16.9636 12.9936C17.0574 12.8998 17.1101 12.7726 17.1101 12.64C17.1101 12.5074 17.0574 12.3802 16.9636 12.2864C16.8698 12.1927 16.7427 12.14 16.6101 12.14H6.42005L6.89005 9.94C6.89498 9.90685 6.89498 9.87315 6.89005 9.84H17.8001C17.8974 9.83909 17.9924 9.81036 18.0739 9.7572C18.1554 9.70405 18.22 9.62868 18.2601 9.54L21.3601 2.34C21.401 2.25955 21.4189 2.16936 21.4119 2.07936C21.4048 1.98937 21.373 1.90307 21.3201 1.83ZM8.90005 15.1C8.91672 15.2948 8.8556 15.4883 8.73006 15.6382C8.60453 15.7881 8.42476 15.8822 8.23005 15.9H8.10005C7.88788 15.9 7.6844 15.8157 7.53437 15.6657C7.38434 15.5157 7.30005 15.3122 7.30005 15.1C7.30005 14.8878 7.38434 14.6843 7.53437 14.5343C7.6844 14.3843 7.88788 14.3 8.10005 14.3C8.2038 14.2987 8.30679 14.3178 8.40314 14.3563C8.4995 14.3948 8.58733 14.4519 8.66161 14.5243C8.7359 14.5967 8.7952 14.6831 8.83611 14.7784C8.87702 14.8738 8.89875 14.9763 8.90005 15.08V15.1ZM15.6001 15.1C15.6001 15.3122 15.5158 15.5157 15.3657 15.6657C15.2157 15.8157 15.0122 15.9 14.8001 15.9C14.5879 15.9 14.3844 15.8157 14.2344 15.6657C14.0843 15.5157 14.0001 15.3122 14.0001 15.1C13.9987 14.9963 14.0179 14.8933 14.0563 14.7969C14.0948 14.7006 14.1519 14.6127 14.2243 14.5384C14.2968 14.4641 14.3831 14.4049 14.4785 14.3639C14.5738 14.323 14.6763 14.3013 14.7801 14.3C14.8838 14.2987 14.9868 14.3178 15.0831 14.3563C15.1795 14.3948 15.2673 14.4519 15.3416 14.5243C15.4159 14.5967 15.4752 14.6831 15.5161 14.7784C15.557 14.8738 15.5787 14.9763 15.5801 15.08L15.6001 15.1Z" fill="white"/>
</g>
<defs>
<clipPath id="clip0">
<rect width="21.4" height="17.4" fill="white"/>
</clipPath>
</defs>
</svg>
