<svg width="133" height="40" viewBox="0 0 133 40" fill="none" xmlns="http://www.w3.org/2000/svg">
<path d="M20.0159 0C8.86608 0 0 8.98915 0 19.9389C0 31.0086 8.86608 40 20.0159 40C31.2246 40 39.9717 31.0103 39.9717 19.9424C39.9736 8.99264 31.2246 0 20.0159 0ZM20.0159 8.46348C29.1199 8.46348 35.7891 14.1724 38.6074 19.9424C35.7891 25.8005 29.1199 31.5365 20.0159 31.5365C10.8531 31.5365 4.23727 25.7987 1.42087 19.9424C4.23727 14.1742 10.855 8.46698 20.0159 8.46698V8.46349V8.46348ZM20.0159 9.37091C14.0852 9.37091 9.24981 14.1108 9.24981 19.9389C9.24981 25.8551 14.0852 30.5698 20.0159 30.5698C25.9467 30.5698 30.7184 25.8549 30.7184 19.9424C30.7184 14.1143 25.9467 9.37091 20.0159 9.37091Z" fill="black"/>
<path d="M59.1077 2.37326C48.6392 2.37326 41.3433 10.2201 41.3433 19.7644V19.8796C41.3433 29.5419 48.7878 37.187 58.8426 37.187C65.3959 37.187 69.3114 34.8725 72.811 31.1526L68.0359 26.413C65.3656 28.8118 62.9608 30.3673 59.0759 30.3673C53.2343 30.3673 49.1722 25.5307 49.1722 19.7644V19.6772C49.1722 13.909 53.3235 9.19291 59.0759 9.19291C62.4863 9.19291 65.1556 10.6281 67.7955 13.0006L72.5707 7.55256C69.3975 4.47921 65.5433 2.37326 59.1077 2.37326Z" fill="black"/>
<path d="M75.635 2.95612V36.5972H91.8549C99.5335 36.5972 104.604 33.5265 104.604 27.3798V27.2611C104.604 22.7523 102.175 20.4953 98.2276 19.0036C100.661 17.658 102.706 15.5503 102.706 11.7442V11.6569C102.706 9.34066 101.934 7.46739 100.362 5.91572C98.4076 4.01361 95.3528 2.95612 91.4661 2.95612H75.635ZM82.9267 9.42675H90.3421C93.5153 9.42675 95.2621 10.6856 95.2621 12.8819V13.0006C95.2621 15.4893 93.1579 16.5431 89.8367 16.5431L82.9267 16.5465V9.42675V9.42675ZM82.9267 22.6961H91.618C95.4403 22.6961 97.1602 24.1028 97.1602 26.3572V26.4724C97.1602 28.9611 95.1457 30.1021 91.8549 30.1021L82.9267 30.1056V22.6961V22.6961Z" fill="black"/>
<path d="M119.304 2.46051C112.365 2.46051 107.385 6.49996 107.385 12.6167V12.7074C107.385 19.3864 111.83 21.2614 118.682 22.9893C124.375 24.451 125.56 25.3871 125.56 27.2611V27.3798C125.56 29.34 123.69 30.5418 120.636 30.5418C116.721 30.5418 113.52 28.9576 110.464 26.4689L106.018 31.711C110.109 35.3128 115.328 37.0718 120.488 37.0718V37.0683C127.842 37.0683 133 33.3183 133 26.6469V26.5596C133 20.6753 129.087 18.2399 122.177 16.4558C116.307 14.9604 114.822 14.2302 114.822 12.0338V11.9466C114.822 10.3068 116.335 8.99048 119.212 8.99048C122.089 8.99048 125.055 10.2471 128.08 12.3235L131.964 6.73588C128.524 4.01296 124.286 2.46051 119.304 2.46051Z" fill="black"/>
</svg>
