<svg width="33" height="33" viewBox="0 0 33 33" fill="none" xmlns="http://www.w3.org/2000/svg">
<path d="M16.4999 0C7.40192 0 0 7.40174 0 16.4999C0 25.5981 7.40192 33 16.4999 33C25.5979 33 32.9998 25.5981 32.9998 16.4999C32.9998 7.40174 25.5981 0 16.4999 0ZM25.9745 13.7129L15.6084 24.079C15.1676 24.5198 14.5817 24.7624 13.9585 24.7624C13.3352 24.7624 12.7493 24.5198 12.3085 24.079L7.02537 18.7958C6.58461 18.3551 6.34184 17.7692 6.34184 17.1459C6.34184 16.5225 6.58461 15.9366 7.02537 15.4958C7.46596 15.055 8.05187 14.8123 8.67531 14.8123C9.29858 14.8123 9.88466 15.055 10.3253 15.496L13.9583 19.1288L22.6742 10.4129C23.115 9.97212 23.7009 9.72953 24.3242 9.72953C24.9474 9.72953 25.5333 9.97212 25.9741 10.4129C26.8842 11.323 26.8842 12.8032 25.9745 13.7129Z" fill="#13AF49"/>
</svg>
