<svg width="33" height="33" viewBox="0 0 33 33" fill="none" xmlns="http://www.w3.org/2000/svg">
<path d="M29.1328 0H3.86719C1.73482 0 0 1.73482 0 3.86719V29.1328C0 31.2652 1.73482 33 3.86719 33H29.1328C31.2652 33 33 31.2652 33 29.1328V3.86719C33 1.73482 31.2652 0 29.1328 0ZM30.4219 29.1328C30.4219 29.8436 29.8436 30.4219 29.1328 30.4219H21.7852V19.916H25.7677L26.4258 15.9199H21.7852V13.1484C21.7852 12.0543 22.6247 11.2148 23.7188 11.2148H26.3613V7.21875H23.7188C20.4366 7.21875 17.7905 9.87744 17.7905 13.1597V15.9199H13.9219V19.916H17.7905V30.4219H3.86719C3.1564 30.4219 2.57812 29.8436 2.57812 29.1328V3.86719C2.57812 3.1564 3.1564 2.57812 3.86719 2.57812H29.1328C29.8436 2.57812 30.4219 3.1564 30.4219 3.86719V29.1328Z" fill="white"/>
</svg>
