<svg width="30" height="30" viewBox="0 0 30 30" fill="none" xmlns="http://www.w3.org/2000/svg">
<path fill-rule="evenodd" clip-rule="evenodd" d="M21.3867 6.27045C23.9877 6.87401 24.9827 8.39493 26.2301 10.4883H21.3867V6.27045ZM6.18622 10.6641C6.69548 10.6641 7.06512 10.9099 7.06512 11.4844C7.06512 11.9689 6.67305 12.3619 6.18874 12.3633H0.878906C0.393448 12.3633 0 12.757 0 13.2422C0 13.7276 0.393448 14.1211 0.878906 14.1211H8.78906C9.2791 14.1211 9.6714 14.5143 9.6714 15C9.6714 15.4855 9.27795 15.8789 8.7925 15.8789H0.878906C0.393448 15.8789 0 16.2724 0 16.7578C0 17.2433 0.393448 17.6367 0.878906 17.6367H2.8125V20.2734C2.8125 20.7589 3.20595 21.1523 3.69141 21.1523H5.45815C5.77309 22.7037 7.14386 23.8477 8.75977 23.8477C10.3757 23.8477 11.7464 22.7037 12.0614 21.1523H20.9855C21.3004 22.7037 22.6712 23.8477 24.2871 23.8477C25.903 23.8477 27.2738 22.7037 27.5887 21.1523H29.1211C29.6066 21.1523 30 20.7589 30 20.2734V15C30 12.4212 27.28 12.25 27.2775 12.2461H20.5078C20.0224 12.2461 19.6289 11.8526 19.6289 11.3672V6.09375H3.69141C3.20595 6.09375 2.8125 6.4872 2.8125 6.97266V8.90625H1.75781C1.27235 8.90625 0.878906 9.2997 0.878906 9.78516C0.878906 10.2706 1.27235 10.6641 1.75781 10.6641H6.18622ZM25.4265 19.3391C26.0557 19.9683 26.0557 20.9889 25.4265 21.6181C24.4144 22.6302 22.6758 21.9102 22.6758 20.4785C22.6758 19.0471 24.4144 18.327 25.4265 19.3391ZM9.89914 19.3391C10.5283 19.9683 10.5283 20.9889 9.89914 21.6181C8.88702 22.6302 7.14844 21.9102 7.14844 20.4785C7.14844 19.0471 8.88702 18.327 9.89914 19.3391Z" fill="white"/>
</svg>
