<svg width="77" height="77" viewBox="0 0 77 77" fill="none" xmlns="http://www.w3.org/2000/svg">
<path d="M0 0H77V62.4542H0V0Z" fill="#003366"/>
<path d="M0 63.3083H77V77H0V63.3083Z" fill="#C20017"/>
<path d="M77 44.7036H76.8566C76.0024 42.6087 75.036 40.5637 73.9574 38.5748H74.9051C75.6533 40.0088 76.3516 41.4615 77 42.9392V44.7036ZM0 8.55417C3.79077 7.28227 7.68753 6.38445 11.6529 5.86696L12.7814 0H21.9279L19.8766 5.32453C22.3394 5.3183 24.7959 5.4617 27.2399 5.75474L30.0892 0H40.1398L35.3514 7.2698C41.7047 8.91579 47.7525 11.5594 53.264 15.107C54.3614 15.8115 55.4275 16.5534 56.4625 17.3203H55.0098C48.9184 13.0308 42.0913 9.87595 34.8651 8.02421L29.0106 17.1083H24.8083V23.2933L14.4398 40.2083H11.1229V45.8633L0.498785 62.4542H0.162105L26.8534 6.55279C24.4405 6.27223 22.0089 6.1413 19.5836 6.16L0.0748178 62.4542H0V8.55417ZM0 61.413L11.4658 6.75231C7.58154 7.29474 3.7596 8.21749 0.0498785 9.49563H0V61.413Z" fill="white"/>
<path d="M31.6542 31.3798H37.278V26.1239H31.6542V23.6175H38.5L38.1259 18.3491H25.9306V37.6396H31.6542V31.3798ZM55.4463 37.5835H61.6L64.4057 32.8512L67.2799 37.5897H73.5771L67.5044 27.5953L72.9723 18.3802H66.7375L64.387 22.383L61.9492 18.3678H55.6084L61.2384 27.6389L55.4463 37.5835ZM48.2887 37.7955C53.7317 37.8703 58.2083 33.5308 58.3018 28.0878C58.0711 22.5513 53.4012 18.2493 47.8585 18.4738C42.6399 18.692 38.4626 22.8693 38.2444 28.0878C38.3317 33.5371 42.8207 37.8827 48.27 37.7955H48.2887ZM46.518 23.8544C46.5242 22.9005 47.2786 22.1274 48.2263 22.0837C49.2052 22.1024 49.997 22.8818 50.0344 23.8544V32.0407C49.9658 33.0134 49.1241 33.7428 48.1515 33.6742C47.2724 33.6119 46.5803 32.9136 46.518 32.0407V23.8544ZM32.9573 52.042H38.7806V48.1827H32.9573V45.5578H40.0525V41.3805H28.462V59.4178H40.1398V55.0784H32.9573V52.042ZM58.0212 41.3805L55.7892 51.7053L53.607 41.3805H49.7539L47.6777 51.8113L45.5142 41.3805H40.9191L45.0902 59.4178H49.28L51.3313 49.0805L53.4449 59.4178H57.5474L61.7372 41.3805H58.0212ZM73.2342 49.5294C72.0371 48.4258 70.6654 48.1328 69.1254 47.6964C67.3049 47.1851 66.3011 47.129 66.3011 46.0691C66.3759 45.2835 67.0742 44.7099 67.8598 44.7847C67.866 44.7847 67.8722 44.7847 67.8722 44.7847C69.0319 44.6912 70.0918 45.458 70.3599 46.5928L74.2941 45.2835C73.5646 42.5402 71.0208 40.6759 68.184 40.8006C64.0752 40.8006 61.5626 43.3257 61.5626 46.7237C61.5626 49.6603 63.2709 51.1068 66.6939 52.1293C68.7389 52.7466 69.8237 52.6967 69.8237 54.0122C69.8237 54.7043 69.1816 55.2467 68.1154 55.2467C66.7063 55.4088 65.422 54.4424 65.1788 53.0458L60.8643 53.9935C61.6 57.4164 64.1501 59.449 68.0593 59.449C69.9921 59.4989 71.8563 58.732 73.1905 57.3354C74.1756 56.2505 74.7181 54.8352 74.7056 53.3638C74.7867 51.9298 74.2442 50.5332 73.228 49.5232H73.2342V49.5294ZM22.8631 50.4334L17.4887 41.4615H12.2764V59.4303H16.8527V48.9308L22.9878 59.4053H27.3272V41.4366H22.8756L22.8631 50.4334Z" fill="white"/>
<path d="M7.40066 69.4995C7.89321 69.4122 8.37953 69.6928 8.55411 70.1604H11.1228C10.9607 68.9446 9.58285 68.2214 7.43807 68.2214C4.98156 68.2526 3.42285 69.3062 3.42285 71.0208C3.42285 72.5795 4.95662 73.5896 7.2822 73.5896C9.42698 73.5896 10.8298 72.8476 11.0917 71.5819H8.56034C8.41694 72.0683 8.01168 72.3114 7.35702 72.3114C6.50285 72.3114 6.04147 71.8563 6.04147 70.9522C6.04147 70.0482 6.52155 69.4995 7.40066 69.4995ZM32.3836 72.4424V70.5532C32.4833 69.9671 32.2901 69.3686 31.8723 68.9509C31.0119 68.4334 30.0081 68.2027 29.0043 68.3024C26.7909 68.3024 25.5814 68.8386 25.332 70.0108H27.6825C27.7823 69.6429 28.2125 69.4434 28.9482 69.4434C29.6839 69.4434 29.9582 69.5993 29.9582 69.8861V70.0045C29.9582 70.3911 28.9918 70.31 27.1837 70.5844C25.8058 70.7901 25.1138 71.3014 25.1138 72.1306C25.1138 72.9598 26.0178 73.5709 27.5516 73.5709C28.4245 73.5958 29.2911 73.3589 30.033 72.8975C30.058 73.0721 30.1016 73.2466 30.164 73.4088H32.7327V73.2217C32.5083 73.1344 32.3898 72.8726 32.3898 72.4236L32.3836 72.4424ZM29.9458 71.6381C29.9458 72.168 29.3285 72.4922 28.4681 72.4922C27.8945 72.4922 27.5267 72.2428 27.5267 71.8999C27.5267 71.557 27.7948 71.4448 28.3808 71.345C28.9108 71.2951 29.4345 71.2016 29.9458 71.0645V71.6381ZM41.4615 68.3087C40.5948 68.2338 39.7407 68.5269 39.0985 69.113V68.4458H36.617V73.4337H39.1858V70.7527C39.1858 69.8985 39.5536 69.5494 40.4764 69.5494C41.3991 69.5494 41.5488 69.9921 41.5488 70.9086V73.415H44.1175V70.1542C44.0863 68.8947 43.3818 68.3087 41.4926 68.3087H41.4615ZM19.2655 68.3772C18.3989 68.3149 17.5385 68.5955 16.8714 69.1566V66.7375H14.3026V73.496H16.8714V70.8338C16.8714 69.9796 17.2392 69.6305 18.162 69.6305C19.0847 69.6305 19.2343 70.0731 19.2343 70.9896V73.496H21.8031V70.0731C21.8031 68.9633 20.924 68.3772 19.2905 68.3772H19.2655ZM53.4884 68.3087C52.6218 68.2338 51.7676 68.5269 51.1254 69.113V68.4458H48.6876V73.4337H51.2564V70.7527C51.2564 69.8985 51.6242 69.5494 52.547 69.5494C53.4697 69.5494 53.6194 69.9921 53.6194 70.9086V73.415H56.1881V70.1542C56.1569 68.8947 55.4462 68.3087 53.5508 68.3087H53.4884ZM63.4641 68.2588C61.0887 68.2588 59.5487 69.2751 59.5487 70.946C59.5487 72.6169 61.1198 73.5833 63.5265 73.5833C65.5216 73.5833 66.9494 72.9474 67.3796 71.875H64.9231C64.7423 72.2366 64.3058 72.4236 63.6138 72.4236C62.7097 72.4236 62.2172 72.0496 62.2172 71.345H67.4856C67.4918 71.2453 67.4918 71.1517 67.4856 71.052C67.5043 69.3062 65.9768 68.265 63.5265 68.265L63.4641 68.2588ZM62.0862 70.3849C62.186 69.7177 62.7222 69.3561 63.5389 69.3561C64.3557 69.3561 64.9792 69.7302 64.9917 70.3849H62.0862ZM71.0083 66.7313V73.4898H73.577V66.7313H71.0083Z" fill="white"/>
</svg>
