<svg width="33" height="33" viewBox="0 0 33 33" fill="none" xmlns="http://www.w3.org/2000/svg">
<path d="M24.0672 0H8.93278C4.00716 0 0 4.00716 0 8.93278V24.0674C0 28.9928 4.00716 32.9999 8.93278 32.9999H24.0674C28.9928 32.9999 32.9999 28.9928 32.9999 24.0674V8.93278C32.9999 4.00716 28.9928 0 24.0672 0V0ZM31.0653 24.0674C31.0653 27.926 27.926 31.0653 24.0672 31.0653H8.93278C5.07391 31.0653 1.9346 27.926 1.9346 24.0674V8.93278C1.9346 5.07391 5.07391 1.9346 8.93278 1.9346H24.0674C27.926 1.9346 31.0653 5.07391 31.0653 8.93278V24.0674Z" fill="white"/>
<path d="M16.5 7.47705C11.5245 7.47705 7.47681 11.5247 7.47681 16.5002C7.47681 21.4757 11.5245 25.5234 16.5 25.5234C21.4754 25.5234 25.5231 21.4757 25.5231 16.5002C25.5231 11.5247 21.4754 7.47705 16.5 7.47705ZM16.5 23.5888C12.5915 23.5888 9.4114 20.4089 9.4114 16.5002C9.4114 12.5917 12.5915 9.41165 16.5 9.41165C20.4087 9.41165 23.5885 12.5917 23.5885 16.5002C23.5885 20.4089 20.4087 23.5888 16.5 23.5888Z" fill="white"/>
<path d="M25.739 4.27246C24.2687 4.27246 23.0728 5.46862 23.0728 6.9387C23.0728 8.40904 24.2687 9.60519 25.739 9.60519C27.2093 9.60519 28.4055 8.40904 28.4055 6.9387C28.4055 5.46837 27.2093 4.27246 25.739 4.27246ZM25.739 7.67034C25.3357 7.67034 25.0073 7.34204 25.0073 6.9387C25.0073 6.53511 25.3357 6.20706 25.739 6.20706C26.1426 6.20706 26.4709 6.53511 26.4709 6.9387C26.4709 7.34204 26.1426 7.67034 25.739 7.67034Z" fill="white"/>
</svg>
