<svg width="219" height="49" viewBox="0 0 219 49" fill="none" xmlns="http://www.w3.org/2000/svg">
<path d="M79.6247 6.23099C77.1561 5.95788 74.6532 5.90766 72.1784 6.10856C69.7192 6.31261 67.1478 6.67046 64.8629 7.60278C63.7453 8.05796 62.553 8.60731 61.7872 9.5459C61.0339 10.4688 60.5763 11.9662 61.504 12.9613C63.1632 14.738 65.9929 15.1304 68.3401 15.4412C73.5139 16.1255 78.7811 15.8618 83.9735 16.4363C86.4857 16.7157 89.0135 17.1834 91.3825 18.0372C93.7141 18.8754 96.2263 20.2692 97.4933 22.4038C100.105 26.8111 99.0684 32.562 94.9655 35.8204C90.9497 39.0129 85.53 40.121 80.4216 40.4035C75.2914 40.6892 69.9713 40.5165 64.9034 39.6564C60.1809 38.8496 55.8072 37.1639 51.8755 34.5428C53.1861 32.6028 54.4997 30.6597 55.8072 28.7197C59.6798 31.7929 65.0123 33.2212 69.881 33.9965C72.4275 34.4015 75.0143 34.5428 77.5919 34.5428C80.0916 34.5428 82.7003 34.345 85.1035 33.6512C87.3854 32.9952 90.1155 31.9185 91.0587 29.6269C91.4821 28.5847 91.6502 27.2945 91.0556 26.2774C90.4081 25.1756 89.3061 24.4881 88.0982 24.033C85.6701 23.1195 83.0614 22.8872 80.487 22.6769C77.9281 22.4697 75.3381 22.4446 72.773 22.341C67.8295 22.1401 62.3009 21.8105 57.9084 19.4153C55.7231 18.2256 53.7744 16.2228 53.432 13.7523C53.0926 11.3101 53.4133 8.67636 54.9978 6.64535C58.089 2.68063 63.5679 1.0012 68.5362 0.454995C73.7224 -0.110047 78.9367 0.0249376 84.0856 0.822275C88.8983 1.57253 93.7576 3.30846 97.7578 5.98928C96.4691 7.70324 95.1772 9.42034 93.8915 11.1343C89.8415 8.19294 84.6117 6.78661 79.6247 6.23099" fill="#D22628"/>
<path d="M116.402 40.3124C116.1 40.3407 114.198 40.3627 114.166 40.5039C111.648 40.4412 109.083 40.1429 107.013 38.6613C105.036 37.2518 104.376 34.7279 104.245 32.4929C104.108 30.1385 104.214 27.7591 104.214 25.4016V16.0345C104.214 15.8022 104.301 15.6892 104.043 15.6892H101.643H99.1712C98.7758 15.6892 98.9501 15.2842 98.9501 14.9515V10.0764C98.9501 9.64006 99.2272 9.80329 99.663 9.80329H102.477H103.666H104.214V8.60101V3.31159C104.214 3.14835 104.245 2.10616 104.214 2.1093C104.183 2.11557 105.385 2.1093 105.59 2.1093C107.383 2.1093 111.225 2.10303 111.511 2.10303V4.27844V9.33558V9.8033H113.454H119.178H121.177C121.557 9.8033 121.529 9.75935 121.529 10.1298V15.0331C121.529 15.2654 121.678 15.6892 121.379 15.6892H119.683H113.964H111.511C111.533 20.8593 111.555 26.0326 111.576 31.2058C111.583 32.0879 111.713 33.014 112.467 33.6104C113.214 34.1974 114.325 34.2477 115.253 34.2759C117.466 34.3387 119.596 33.7862 121.681 33.1427C122.263 35.1266 122.849 37.1105 123.431 39.0945C121.908 39.5057 120.305 39.7725 118.743 40.0048C117.967 40.121 117.186 40.2308 116.402 40.3125" fill="#D22628"/>
<path d="M147.871 40.0268L143.849 46.914C143.522 47.4728 143.195 48.0316 142.868 48.5903C142.616 49.0267 142.268 48.8571 141.735 48.8571H134.51C136.042 46.3898 137.573 43.9256 139.102 41.4582C139.472 40.8618 139.846 40.2654 140.216 39.6689C140.253 39.6061 140.646 39.0913 140.611 39.0254C140.387 38.6361 140.163 38.2438 139.939 37.8545C136.667 32.1507 133.396 26.4469 130.124 20.74C128.032 17.0923 125.94 13.451 123.851 9.80329H132.471C132.798 9.80329 133.038 10.5849 133.168 10.8266C133.775 11.9379 134.382 13.0491 134.989 14.1604C138.133 19.9081 141.274 25.6527 144.415 31.4005C144.528 31.6014 144.64 31.8086 144.749 32.0063C147.56 27.0905 150.374 22.1683 153.185 17.2493C154.523 14.9106 155.859 12.5751 157.197 10.2333C157.278 10.0921 157.359 9.95083 157.44 9.80643C157.487 9.72481 158.427 9.80327 158.527 9.80327H164.065H165.512C163.411 13.4007 161.313 17.0013 159.212 20.5924C155.429 27.0747 151.65 33.5476 147.871 40.0268" fill="#D22628"/>
<path d="M174.97 39.4272H169.796H167.925C167.791 39.4272 167.831 39.3864 167.831 39.2671V33.871V12.2361V0.96979C168.563 0.96979 175.265 0.941539 175.265 1.00118V5.63139V26.9774V36.1719V38.7554C175.265 39.1635 175.43 39.4272 174.97 39.4272Z" fill="#D22628"/>
<path d="M198.079 8.97155C195.456 9.00216 192.835 9.37981 190.352 10.0688C185.512 11.4124 181.025 14.7302 179.272 19.351C177.56 23.8682 178.009 29.3637 180.935 33.3535C183.936 37.4438 188.995 39.5686 194.075 40.165C199.168 40.7614 204.592 40.4489 209.535 39.1022C211.994 38.4304 214.362 37.3754 216.454 35.9691C216.601 35.8718 217.741 35.136 217.672 35.0512C217.29 34.5678 216.906 34.0929 216.523 33.6158C215.632 32.4951 214.737 31.3755 213.847 30.2549C213.532 30.5029 213.219 30.7397 212.889 30.9657C208.77 33.7532 203.314 34.2024 198.414 34.2024H198.12C193.516 34.2024 187.355 32.4348 186.424 27.453H186.431H202.719H218.891C218.813 24.6184 218.426 21.8329 217.262 19.1991C215.182 14.4936 210.888 11.3547 205.826 9.95153C203.329 9.25935 200.702 8.94095 198.079 8.97155ZM197.839 15.1481C198.145 15.1429 198.45 15.1464 198.749 15.155C203.5 15.2932 209.188 16.8128 210.487 21.7664H204.553H186.492C186.523 21.6283 186.545 21.4842 186.588 21.3523C188.15 16.8967 193.256 15.2259 197.839 15.1481Z" fill="#D22628"/>
<path d="M0.109619 39.355V34.9508V13.7335V0.969788H8.11312V5.08204V26.1613C8.11312 26.9774 8.15359 39.3676 8.07576 39.3676C7.31931 39.3676 0.109619 39.377 0.109619 39.355Z" fill="black"/>
<path d="M40.9987 39.3236V30.9076V24.1836C40.9987 21.9674 40.9987 19.1108 39.3613 17.3372C37.6678 15.5071 34.8226 15.2214 32.4038 15.2214C29.9196 15.2214 27.314 15.4505 24.9824 16.3546C23.8119 16.8098 22.6632 17.2712 21.5768 17.9022C21.0102 18.2318 20.4686 18.5897 19.9393 18.9726C19.6623 19.1704 19.4786 19.2614 19.4786 19.5785V37.8953C19.4786 38.1182 19.6249 39.3675 19.3541 39.3675H14.4418H12.2752C12.0666 39.3675 12.0292 39.4178 12.0292 39.2326V37.0885V16.4237V9.97591C12.0292 9.80326 11.9981 9.80326 12.188 9.80326H14.2177H19.2763C19.6561 9.80326 19.4786 10.2396 19.4786 10.5472V12.4025C23.759 9.67769 28.8518 8.73595 33.9354 8.9808C38.7511 9.20996 44.6814 10.5096 47.0006 15.0707C48.0777 17.1833 48.5041 19.4184 48.5135 21.7633C48.5228 24.4347 48.5353 27.1093 48.5446 29.7807C48.5539 32.9763 48.5664 36.1719 48.5789 39.3675C47.8224 39.3675 40.9987 39.4084 40.9987 39.3236" fill="black"/>
</svg>
