<svg width="27" height="27" viewBox="0 0 27 27" fill="none" xmlns="http://www.w3.org/2000/svg">
<path d="M23.2401 5.00136C23.2401 5.00136 22.3337 8.23847 20.3915 10.0081L21.5223 11.0612C21.6 11.1332 21.6316 11.2453 21.6 11.3461C21.4676 11.7662 20.9928 12.8135 19.5541 12.8135C18.2248 12.8135 17.8421 11.8266 17.7356 11.3116C17.7011 11.1475 17.819 10.9921 17.9831 10.9777L18.5557 10.9288C18.6966 10.9174 18.8233 11.0123 18.8521 11.1504C18.9182 11.4842 19.1398 12.0194 19.8994 11.7892C20.9727 11.464 17.2723 9.48724 17.2723 9.48724C17.2723 9.48724 16.2854 10.1433 14.9215 10.6181C14.8984 10.5548 14.8754 10.4943 14.8524 10.4282C14.6165 9.78937 14.2539 9.17073 13.7935 8.66718C13.2727 8.09169 12.6311 7.71763 11.8887 7.51621C12.0326 7.55649 12.2023 7.70324 12.3232 7.78956C12.5016 7.91617 12.6627 8.06579 12.8095 8.22693C13.1058 8.55208 13.336 8.93478 13.5029 9.34049C13.7907 10.0483 13.946 10.9173 13.8741 11.6827C13.7561 12.9517 13.313 15.5011 11.6441 17.2534C9.34217 19.6705 9.42849 20.2172 10.378 23.1234C11.0542 25.1894 10.5507 26.3691 10.2025 26.8784C10.0903 27.0424 9.85144 27.0396 9.7421 26.8755L9.38243 26.3346C9.34217 26.2713 9.32778 26.1965 9.34217 26.1245C9.43422 25.6728 9.60686 23.7967 7.24738 20.3064C7.17835 20.2057 7.1841 20.0704 7.26176 19.9755C7.75959 19.3654 9.49177 17.0865 9.69031 14.5515C9.9205 11.5878 7.27327 11.7892 6.89921 9.1995C6.89921 9.1995 4.34406 11.1763 4.55986 16.4851C4.77276 21.6933 4.31816 24.6599 1.16159 25.9519C1.05225 25.995 0.928522 25.9663 0.850832 25.8799C0.741489 25.7591 0.761631 25.5692 0.891115 25.4713C1.66802 24.8959 3.85199 22.6256 2.48809 15.8809C0.847954 7.76654 8.66016 3.40724 12.631 3.40724C16.6019 3.40724 20.0548 6.64435 20.8748 3.40724C20.8748 3.40724 19.039 2.6476 18.9354 0.288112C18.9297 0.124098 19.0621 -0.00826322 19.2261 0.000369057C19.9483 0.0291433 21.7985 0.288112 22.3855 2.11528L24.1724 2.43179C24.2702 2.44906 24.3508 2.51524 24.3853 2.60732L24.6788 3.38998C24.7047 3.45616 24.7536 3.51083 24.8169 3.54248L26.0629 4.14962C26.2154 4.22443 26.2672 4.41434 26.1722 4.55246C25.9132 4.93806 25.1881 5.51642 23.2401 5.00136Z" fill="white"/>
</svg>
