<?xml version="1.0" encoding="utf-8"?>
<!-- Generator: Adobe Illustrator 24.2.0, SVG Export Plug-In . SVG Version: 6.00 Build 0)  -->
<svg version="1.1" id="Слой_1" xmlns="http://www.w3.org/2000/svg" xmlns:xlink="http://www.w3.org/1999/xlink" x="0px" y="0px"
	 viewBox="0 0 200 68.5" style="enable-background:new 0 0 200 68.5;" xml:space="preserve">
<style type="text/css">
	.st0{fill:#FEFDFD;}
	.st1{fill:#E7A292;}
</style>
<g>
	<path class="st0" d="M-721.3-721c0.2-0.3-0.5-1,0.5-1c1.3,0,2.7,0,4,0c544.6,0,1089.3,0,1633.9,0.1c1.5,0,3.4-1.2,4.5,0.9
		c-0.4,0.1-0.8,0.2-1.1,0.3c-2-0.1-4-0.2-6-0.2c-542.7,0-1085.4,0-1628.2,0c-2.2,0-4.3,0.1-6.5,0.2
		C-720.6-720.8-721-720.9-721.3-721z"/>
	<path class="st1" d="M149.9,36.2c0,4.2,0,8.1,0,12c0,0.3,0.1,0.6,0.2,0.8c0.4,1.2,0.4,1.2-0.9,1.2c-4.2,0-8.3,0-12.5,0
		c-0.8,0-1-0.2-0.6-0.9c0.4-0.7,0.4-1.4,0.4-2.1c0-14.8,0-29.6,0-44.4c0-1.5,0-1.5,1.5-1.3c5.5,0.6,9.8,4.2,11.4,9.6
		c0.4,1.4,0.5,2.8,0.5,4.3c0,5.8,0,11.6,0,17.4c0,0.3,0,0.7,0,1.3c1.2-0.9,2.3-1.7,3.4-2.5c1.2-1,2.5-1.9,3.7-2.9
		c0.5-0.4,0.8-0.4,1.2,0.2c4.2,6,8.5,12,12.8,18c0.8,1.1,1.6,2.2,2.4,3.4c-0.3,0.4-0.6,0.2-0.9,0.2c-4.4,0-8.8,0-13.2,0
		c-1.1,0-1.2,0-0.7-1.1c0.2-0.5,0.2-1-0.2-1.4c-2.6-3.6-5.3-7.2-7.9-10.9C150.3,36.7,150.2,36.6,149.9,36.2z"/>
	<path class="st1" d="M41.5,30.6c0,5.4,0,10.8,0,16.2c0,0.9,0,1.8,0.4,2.6c0.3,0.6,0.1,0.8-0.5,0.8c-4.3,0-8.7,0-13,0
		c-0.6,0-0.8-0.2-0.5-0.8c0.4-0.9,0.4-1.8,0.4-2.7c0-14.7,0-29.5,0-44.2c0-1.3,0-1.2,1.2-1.1c5.8,0.4,11,5,11.9,11.2
		c0.1,0.8,0.1,1.6,0.1,2.4C41.5,20.2,41.5,25.4,41.5,30.6z"/>
	<path class="st1" d="M23.1,45.6c-0.8,2.2-2.5,3.5-4.7,4.2C11.7,51.8,5,46.7,5,39.6c0-4.4,0-8.9,0-13.3c0-1.3,0-1.3-1.2-1.3
		c-0.8,0-1.5,0-2.5,0C7,20,12.5,15.1,18.1,10.1c0.2,0.4,0.1,0.7,0.1,1c0,3.5,0,7,0,10.6c0,0.7,0.2,0.9,0.9,0.9c1.1-0.1,2.2,0,3.3,0
		c0.7,0,0.7,0.2,0.5,0.8c-0.4,1.4-1.3,1.9-2.8,1.8c-2.1-0.1-1.8-0.3-1.8,1.8c0,5.5,0,11,0,16.5c0,1.6,0.7,2.7,2.1,3.1
		C21.4,46.8,22.3,46.3,23.1,45.6z"/>
	<path class="st1" d="M165.7,22.6c4.8,0,9.5,0,14.2,0c0.7,0,0.7,0.3,0.4,0.7c-0.5,0.9-0.3,1.5,0.3,2.3c2.9,4.1,5.7,8.2,8.5,12.3
		c0.1,0.2,0.3,0.3,0.5,0.6c0.9-1.4,1.5-2.9,2.2-4.4c1.8-3.6,3.5-7.3,5.3-11c0.1-0.3,0.3-0.6,0.7-0.6c0.2,0,0.6-0.1,0.7,0.1
		c0.2,0.2-0.1,0.4-0.2,0.6c-2.6,5.4-5.2,10.8-7.8,16.2c-3.8,7.8-7.5,15.5-11.3,23.3c-1.8,3.6-6.1,4.5-8.9,1.8
		c-1.7-1.6-2.1-3.7-1.3-5.9c0.8-2,2.2-3.2,4.3-3.5c2.5-0.3,4.4,0.7,5.6,2.8c0.2,0.4,0.3,0.7,0.6,1.3c0.9-1.8,1.7-3.5,2.5-5.2
		c0.6-1.3,1.2-2.5,1.8-3.8c0.3-0.5,0.3-0.9-0.1-1.5c-5.9-8.5-11.8-16.9-17.7-25.4C165.9,23.2,165.6,23,165.7,22.6z"/>
	<path class="st1" d="M83.1,35.7c0,3.8,0,7.6,0,11.4c0,0.8,0,1.7,0.4,2.4c0.3,0.5,0.2,0.8-0.5,0.8c-4.4,0-8.8,0-13.2,0
		c-0.7,0-0.8-0.3-0.5-0.8c0.5-0.9,0.5-1.8,0.4-2.8c0-7.7,0-15.4,0-23c0-0.8,0.1-1.2,1.1-1.1c3.7,0.1,7.5,0.1,11.2,0
		c0.9,0,1.1,0.3,1.1,1.1C83.1,27.7,83.1,31.7,83.1,35.7z"/>
	<path class="st1" d="M99.4,35.7c0,3.7,0,7.5,0,11.2c0,0.9,0,1.8,0.5,2.6c0.3,0.5,0.2,0.8-0.5,0.8c-4.4,0-8.9,0-13.3,0
		c-0.6,0-0.7-0.3-0.5-0.8c0.5-0.9,0.5-1.8,0.5-2.7c0-7.7,0-15.4,0-23.1c0-1,0.3-1.2,1.2-1.2c3.6,0.1,7.2,0,10.8,0
		c1.4,0,1.3-0.2,1.3,1.3C99.4,27.8,99.4,31.8,99.4,35.7z"/>
	<path class="st1" d="M44.7,24.1c2.2-1.2,4.6-1.8,7.1-1.5c4.3,0.5,7.7,2.5,10,6.3c1.2,2,1.7,4.1,1.7,6.4c0,3.9,0,7.7,0,11.6
		c0,0.9,0,1.8,0.5,2.6c0.3,0.5,0.2,0.8-0.5,0.8c-4.4,0-8.9,0-13.3,0c-0.6,0-0.7-0.3-0.5-0.8c0.5-1,0.5-2,0.5-3.1
		c0-5.6-0.1-11.1,0-16.7C50.3,26.7,48.1,23.9,44.7,24.1z"/>
	<path class="st1" d="M121.1,22.8c-1.8,0.8-2.2,2.3-2.2,4c0.1,4.5,0,9,0,13.5c0,4.3,2.1,7,6.2,8.2c0.1,0,0.2,0.1,0.4,0.2
		c-4.1,2.5-11,2.2-15.7-2.3c-4.5-4.2-5.6-11.5-2.5-16.8C110.6,24,116.9,21.9,121.1,22.8z"/>
	<path class="st1" d="M92.6,18.7c-3.7,0-6.6-3.1-6.6-6.8c0-3.6,3.1-6.5,6.8-6.5c3.6,0,6.6,3,6.6,6.6C99.4,15.7,96.3,18.7,92.6,18.7z
		"/>
	<path class="st1" d="M76.4,18.7c-3.7,0-6.7-3-6.7-6.7c0-3.6,3-6.5,6.6-6.5c3.7,0,6.8,2.9,6.7,6.5C83,16.4,79.5,18.8,76.4,18.7z"/>
	<path class="st1" d="M131.1,29.7c0,2.7-2.2,4.9-4.9,4.9c-2.6,0-5-2.3-5-4.9c0-2.7,2.2-5,4.9-5C128.9,24.7,131.1,26.9,131.1,29.7z"
		/>
</g>
</svg>
