<svg width="30" height="30" viewBox="0 0 30 30" fill="none" xmlns="http://www.w3.org/2000/svg">
<path d="M26.5909 20.4555C25.7362 20.4555 24.9634 20.7826 24.3644 21.3042L19.6936 17.7323C20.1648 16.9259 20.4546 16.0004 20.4546 15.001C20.4546 14.0408 20.1837 13.151 19.7462 12.3665L22.9482 10.0179C23.5535 10.5664 24.3481 10.9101 25.2273 10.9101C27.107 10.9101 28.6364 9.38064 28.6364 7.50099C28.6364 5.62134 27.107 4.09185 25.2273 4.09185C23.3477 4.09185 21.8182 5.62128 21.8182 7.50093C21.8182 8.00897 21.9375 8.48703 22.1376 8.9206L18.949 11.2594C17.9542 10.21 16.5567 9.54644 15 9.54644C14.5655 9.54644 14.1482 9.61062 13.7428 9.70708L12.9575 7.61228C14.1728 6.90225 15 5.59814 15 4.09192C15 1.83604 13.165 0.00100708 10.9091 0.00100708C8.65324 0.00100708 6.81821 1.83604 6.81821 4.09192C6.81821 6.3478 8.65324 8.18283 10.9091 8.18283C11.175 8.18283 11.4337 8.15304 11.6856 8.10434L12.4704 10.1978C11.0232 10.9637 9.95549 12.3432 9.64637 14.003L6.76905 13.8342C6.53101 12.1854 5.12272 10.9101 3.40907 10.9101C1.52943 10.9101 0 12.4395 0 14.3191C0 16.1988 1.52943 17.7282 3.40907 17.7282C4.98401 17.7282 6.30013 16.649 6.68966 15.1951L9.58226 15.3649C9.67597 16.7529 10.272 18.0013 11.2141 18.9131L8.68207 22.2893C8.12052 21.9989 7.49295 21.8191 6.81821 21.8191C4.56233 21.8191 2.7273 23.6541 2.7273 25.91C2.7273 28.1658 4.56233 30.0009 6.81821 30.0009C9.07409 30.0009 10.9091 28.1658 10.9091 25.91C10.9091 24.8202 10.4744 23.8347 9.77747 23.1007L12.3136 19.7189C13.1101 20.1744 14.0188 20.4554 15 20.4554C16.5178 20.4554 17.8901 19.8299 18.8799 18.826L23.5339 22.3849C23.3153 22.8343 23.1819 23.3322 23.1819 23.8645C23.1819 25.7442 24.7113 27.2736 26.5909 27.2736C28.4706 27.2736 30 25.7442 30 23.8645C30 21.9849 28.4706 20.4555 26.5909 20.4555ZM25.2273 5.45547C26.3553 5.45547 27.2728 6.37299 27.2728 7.50093C27.2728 8.62887 26.3553 9.54638 25.2273 9.54638C24.0994 9.54638 23.1819 8.62887 23.1819 7.50093C23.1819 6.37299 24.0994 5.45547 25.2273 5.45547ZM3.40907 16.3646C2.28113 16.3646 1.36362 15.4471 1.36362 14.3191C1.36362 13.1912 2.28113 12.2737 3.40907 12.2737C4.53701 12.2737 5.45453 13.1912 5.45453 14.3191C5.45453 15.4471 4.53701 16.3646 3.40907 16.3646ZM6.81821 28.6373C5.31403 28.6373 4.09091 27.4142 4.09091 25.91C4.09091 24.4058 5.31403 23.1827 6.81821 23.1827C8.32238 23.1827 9.5455 24.4058 9.5455 25.91C9.5455 27.4142 8.32232 28.6373 6.81821 28.6373ZM10.9091 6.81915C9.40494 6.81915 8.18182 5.59597 8.18182 4.09185C8.18182 2.58774 9.40494 1.36456 10.9091 1.36456C12.4133 1.36456 13.6364 2.58774 13.6364 4.09185C13.6364 5.59597 12.4132 6.81915 10.9091 6.81915ZM15 19.0919C12.7442 19.0919 10.9091 17.2569 10.9091 15.001C10.9091 12.7451 12.7442 10.9101 15 10.9101C17.2559 10.9101 19.0909 12.7451 19.0909 15.001C19.0909 17.2569 17.2558 19.0919 15 19.0919ZM26.5909 25.91C25.463 25.91 24.5455 24.9925 24.5455 23.8646C24.5455 22.7366 25.463 21.8191 26.5909 21.8191C27.7189 21.8191 28.6364 22.7366 28.6364 23.8646C28.6364 24.9925 27.7189 25.91 26.5909 25.91Z" fill="white"/>
</svg>
