<svg width="77" height="77" viewBox="0 0 77 77" fill="none" xmlns="http://www.w3.org/2000/svg">
<g clip-path="url(#clip0)">
<path d="M38.4966 5.95985C37.2959 2.91884 34.3716 -0.36544 28.8949 0.085678C21.9182 0.855265 19.744 7.63925 20.7982 11.6865C18.0196 9.77735 13.2946 8.93778 9.17039 12.5222C3.84557 17.9382 6.69377 25.2626 9.62097 27.0196C6.39483 26.7164 1.29618 28.9283 0.168176 34.7142C-1.03178 41.8979 4.36553 46.0858 9.62097 46.0858H67.8991C73.9764 46.0858 77.3485 40.7513 76.9701 35.7204C76.3737 29.1545 70.4521 26.6352 67.222 27.1749C69.9208 25.6473 73.5253 18.4709 68.0446 12.8292C63.6942 8.63075 58.1482 10.1582 56.1981 11.9895C57.2494 8.48212 55.5257 1.23186 48.4695 0.0849893C47.9821 0.0296154 47.5125 0 47.0649 0C41.6783 0.000550984 39.2565 3.9956 38.4966 5.95985Z" fill="white"/>
<path d="M10.142 13.6654C7.06508 16.4915 5.94522 22.895 11.4919 26.6384L33.6194 42.0419L22.8903 17.1017C20.6422 11.2164 14.4918 9.93299 10.142 13.6654Z" fill="#F37021"/>
<path d="M29.1895 1.53946C25.5928 1.6137 20.1919 5.95972 22.5955 12.5961L33.6918 39.1495L37.5911 11.2204C38.4935 4.2806 33.3175 1.07704 29.1895 1.53946Z" fill="#CC004C"/>
<path d="M39.3231 10.1553H41.4213C41.4213 10.1553 42.5418 10.1553 42.6943 10.6916C41.8686 11.3758 39.6209 11.4614 39.9192 15.1161L43.4468 39.1459L54.4676 12.5226C56.7218 6.5782 51.99 1.6137 47.7926 1.4619C47.5967 1.44758 47.3999 1.436 47.1965 1.436C43.429 1.43587 39.1118 4.21393 39.3231 10.1553Z" fill="#6460AA"/>
<path d="M54.024 17.3277L43.5999 41.9686L65.7211 26.4839C70.8203 22.814 69.9978 16.9469 67.1435 14.0469C65.9469 12.682 63.7498 11.6275 61.4222 11.6275C58.6726 11.6271 55.7298 13.1069 54.024 17.3277Z" fill="#0089D0"/>
<path d="M63.2443 29.9901L42.4697 44.7133H68.0489C73.2967 44.7133 76.6692 39.2229 75.17 34.1848C74.166 31.0182 71.1952 28.5323 67.7471 28.5287C66.2957 28.5294 64.7565 28.9729 63.2443 29.9901Z" fill="#0DB14B"/>
<path d="M9.54585 44.7133H34.7476L13.968 29.99C9.16763 26.8605 3.76951 28.6916 1.82084 33.8849C0.169083 39.8301 4.29326 44.7133 9.54585 44.7133Z" fill="#FCB711"/>
<path d="M37.4557 64.8577H42.1309C43.2056 64.9263 45.1107 65.8784 45.1107 68.1332C45.1107 70.4915 43.1335 71.4431 42.0622 71.5505H37.4557V64.8577ZM37.3844 54.3585H41.2326C42.548 54.4306 44.1033 55.4169 44.1033 57.2479C44.1033 59.044 42.9274 60.241 41.406 60.4544H37.3844V54.3585ZM32.1233 49.9894V75.9153H44.5212C47.4639 75.9153 50.9619 72.9227 50.9619 69.0124C50.9619 64.9268 48.3314 62.9203 46.667 62.1095C46.667 62.1095 49.7146 60.3133 49.5791 56.4374C49.4405 51.2237 44.6938 49.9894 43.0664 49.9894H32.1233Z" fill="black"/>
<path d="M13.1071 75.9153V60.9828L29.1767 76.9015V49.9894H23.7768V64.5399L7.70337 48.9351V75.9153H13.1071Z" fill="black"/>
<path d="M51.8301 62.6715C51.9656 70.8703 57.7714 77 65.235 77C67.0046 77 68.869 76.6602 70.7743 75.9152V70.6327C69.2643 71.5689 67.584 72.0203 65.9377 72.0203C61.4211 72.0203 57.1594 68.6292 57.3357 62.461C57.6401 57.4576 61.6771 54.0026 66.0279 54.0026C67.6211 54.0026 69.2598 54.4683 70.7743 55.4857V50.3448C69.0084 49.6184 67.2531 49.2936 65.5622 49.2936C58.1173 49.2935 51.973 55.6655 51.8301 62.6715Z" fill="black"/>
</g>
<defs>
<clipPath id="clip0">
<rect width="77" height="77" fill="white"/>
</clipPath>
</defs>
</svg>
