<svg width="73" height="68" viewBox="0 0 73 68" fill="none" xmlns="http://www.w3.org/2000/svg">
<g clip-path="url(#clip0)">
<path d="M26.517 33.749L14.464 33.749L14.464 24.106C14.4664 21.5493 15.4831 19.0979 17.291 17.29C19.0989 15.4821 21.5503 14.4654 24.107 14.463L25.312 14.463C25.7871 14.4642 26.2578 14.3715 26.697 14.1903C27.1362 14.0091 27.5352 13.7429 27.8712 13.4069C28.2072 13.071 28.4735 12.6721 28.6549 12.2329C28.8363 11.7938 28.9291 11.3232 28.928 10.848L28.928 3.61604C28.9295 3.14068 28.837 2.66973 28.6558 2.23025C28.4746 1.79076 28.2083 1.39143 27.8723 1.05521C27.5362 0.718978 27.1371 0.452499 26.6977 0.271072C26.2583 0.0896447 25.7874 -0.00314401 25.312 -0.00195386L24.106 -0.00195397C20.94 -0.00274007 17.8048 0.620299 14.8797 1.83159C11.9545 3.04288 9.29668 4.81866 7.05805 7.05748C4.81942 9.2963 3.04385 11.9543 1.83281 14.8795C0.621766 17.8048 -0.0010259 20.94 2.66816e-05 24.106L2.35204e-05 60.266C0.000553596 62.1839 0.762665 64.0231 2.11881 65.3793C3.47496 66.7354 5.31414 67.4975 7.23202 67.498L26.517 67.498C28.4349 67.4975 30.2741 66.7354 31.6302 65.3793C32.9864 64.0231 33.7485 62.1839 33.749 60.266L33.749 40.981C33.7485 39.0632 32.9864 37.224 31.6302 35.8678C30.2741 34.5117 28.4349 33.7496 26.517 33.749Z" fill="#EA9380"/>
<path opacity="0.5" d="M64.9931 33.749L52.9401 33.749L52.9401 24.106C52.9425 21.5493 53.9592 19.0979 55.7671 17.29C57.575 15.4821 60.0264 14.4654 62.5831 14.463L63.7881 14.463C64.2632 14.4642 64.7339 14.3715 65.1731 14.1903C65.6122 14.0091 66.0113 13.7429 66.3473 13.4069C66.6833 13.071 66.9496 12.6721 67.131 12.2329C67.3123 11.7938 67.4052 11.3232 67.4041 10.848L67.4041 3.61604C67.4056 3.14068 67.313 2.66973 67.1318 2.23025C66.9507 1.79076 66.6844 1.39143 66.3484 1.05521C66.0123 0.718978 65.6131 0.452499 65.1738 0.271072C64.7344 0.0896447 64.2635 -0.00314401 63.7881 -0.00195386L62.5821 -0.00195397C59.4161 -0.00274007 56.2809 0.620299 53.3557 1.83159C50.4306 3.04288 47.7728 4.81866 45.5341 7.05748C43.2955 9.2963 41.5199 11.9543 40.3089 14.8795C39.0978 17.8048 38.475 20.94 38.4761 24.106L38.4761 60.266C38.4766 62.1839 39.2387 64.0231 40.5949 65.3793C41.951 66.7354 43.7902 67.4975 45.7081 67.498L64.9931 67.498C66.911 67.4975 68.7502 66.7354 70.1063 65.3793C71.4625 64.0231 72.2246 62.1839 72.2251 60.266L72.2251 40.981C72.2246 39.0632 71.4625 37.224 70.1063 35.8678C68.7502 34.5117 66.911 33.7496 64.9931 33.749Z" fill="#EA9380"/>
</g>
<defs>
<clipPath id="clip0">
<rect width="72.225" height="67.498" fill="white" transform="translate(72.2251 67.498) rotate(-180)"/>
</clipPath>
</defs>
</svg>
