<svg width="73" height="68" viewBox="0 0 73 68" fill="none" xmlns="http://www.w3.org/2000/svg">
<g clip-path="url(#clip0)">
<path d="M45.7081 33.749H57.7611V43.392C57.7587 45.9487 56.742 48.4001 54.9341 50.208C53.1262 52.0159 50.6748 53.0326 48.1181 53.035H46.9131C46.438 53.0338 45.9673 53.1265 45.5281 53.3077C45.0889 53.489 44.6899 53.7552 44.3539 54.0911C44.0179 54.427 43.7516 54.826 43.5702 55.2651C43.3888 55.7043 43.296 56.1749 43.2971 56.65V63.882C43.2956 64.3574 43.3881 64.8283 43.5693 65.2678C43.7505 65.7073 44.0168 66.1066 44.3528 66.4428C44.6889 66.7791 45.088 67.0455 45.5274 67.227C45.9668 67.4084 46.4377 67.5012 46.9131 67.5H48.1191C51.2851 67.5008 54.4203 66.8777 57.3454 65.6665C60.2706 64.4552 62.9284 62.6794 65.1671 60.4406C67.4057 58.2017 69.1813 55.5438 70.3923 52.6185C71.6033 49.6933 72.2261 46.558 72.2251 43.392V7.232C72.2245 5.31412 71.4624 3.47494 70.1063 2.11879C68.7501 0.762642 66.911 0.000530168 64.9931 0H45.7081C43.7902 0.000530168 41.951 0.762642 40.5949 2.11879C39.2387 3.47494 38.4766 5.31412 38.4761 7.232V26.517C38.4766 28.4349 39.2387 30.2741 40.5949 31.6302C41.951 32.9864 43.7902 33.7485 45.7081 33.749Z" fill="#EA9380"/>
<path opacity="0.5" d="M7.232 33.749H19.285V43.392C19.2826 45.9487 18.2659 48.4001 16.458 50.208C14.6501 52.0159 12.1988 53.0326 9.642 53.035H8.437C7.96189 53.0338 7.49123 53.1265 7.05205 53.3077C6.61286 53.489 6.21381 53.7552 5.87781 54.0911C5.54181 54.427 5.27548 54.826 5.09412 55.2651C4.91276 55.7043 4.81994 56.1749 4.821 56.65V63.882C4.81955 64.3574 4.91207 64.8283 5.09326 65.2678C5.27444 65.7073 5.5407 66.1066 5.87674 66.4428C6.21278 66.7791 6.61197 67.0455 7.05135 67.227C7.49073 67.4084 7.96164 67.5012 8.437 67.5H9.643C12.809 67.5008 15.9442 66.8777 18.8694 65.6665C21.7945 64.4552 24.4523 62.6794 26.691 60.4406C28.9296 58.2017 30.7052 55.5438 31.9162 52.6185C33.1273 49.6933 33.7501 46.558 33.749 43.392V7.232C33.7485 5.31412 32.9864 3.47494 31.6302 2.11879C30.2741 0.762642 28.4349 0.000530168 26.517 0H7.232C5.31412 0.000530168 3.47494 0.762642 2.11879 2.11879C0.762641 3.47494 0.000530168 5.31412 0 7.232L0 26.517C0.000530168 28.4349 0.762641 30.2741 2.11879 31.6302C3.47494 32.9864 5.31412 33.7485 7.232 33.749Z" fill="#EA9380"/>
</g>
<defs>
<clipPath id="clip0">
<rect width="72.225" height="67.498" fill="white"/>
</clipPath>
</defs>
</svg>
