<svg width="39" height="51" viewBox="0 0 39 51" fill="none" xmlns="http://www.w3.org/2000/svg">
<path d="M35.0823 47.371L28.636 45.757L23.9168 50.4101L19.5186 34.28C20.7738 34.28 22.2651 36.5736 23.4449 36.3093C24.6247 36.045 25.0022 33.3173 26.1065 32.7888C27.2108 32.2602 29.5609 33.6666 30.5142 32.9021C30.7439 32.6927 30.8912 32.4082 30.9295 32.0998L35.0823 47.371Z" fill="#EA9380"/>
<path d="M19.5184 34.2801L15.1012 50.4102L10.3821 45.7571L3.95459 47.3805L8.10745 32.0904C8.14598 32.4014 8.29304 32.6889 8.52273 32.9021C9.46656 33.6666 11.8261 32.2508 12.9399 32.7888C14.0536 33.3268 14.3839 36.0356 15.6015 36.3093C16.819 36.583 18.2631 34.2895 19.5184 34.2801Z" fill="#EA9380"/>
<path d="M15.7903 37.2626C15.6586 37.277 15.5256 37.277 15.3939 37.2626C14.2991 36.97 13.7705 35.8657 13.2986 34.9219C13.1216 34.4557 12.8592 34.0268 12.5247 33.6571C12.5247 33.6571 12.4586 33.6571 12.2887 33.6571C11.8614 33.6852 11.4378 33.7547 11.024 33.8648C10.4726 34.0165 9.90585 34.1052 9.3345 34.129C8.83338 34.145 8.34144 33.9921 7.93763 33.6949C7.52051 33.3477 7.25066 32.8553 7.18257 32.3169C7.09544 31.7867 7.06066 31.2493 7.07875 30.7124C7.12163 30.2065 7.06716 29.6971 6.9183 29.2117C6.4797 28.968 5.99963 28.808 5.50255 28.7398C4.4549 28.4944 3.26567 28.2301 2.78432 27.2296C2.30296 26.2292 2.78432 25.1626 3.29399 24.1999C3.55786 23.722 3.72164 23.1953 3.77534 22.6521C3.77534 22.4633 3.10522 21.9442 2.756 21.7082C1.88768 20.9909 0.943848 20.2264 0.943848 19.1032C0.943848 17.9801 1.88768 17.2156 2.756 16.5455C3.10522 16.2623 3.75646 15.7432 3.81309 15.5167C3.73437 15.0065 3.55813 14.5162 3.29399 14.0726C2.83151 13.1099 2.30296 12.0245 2.83151 11.0429C3.36005 10.0613 4.50209 9.76876 5.54974 9.5328C6.052 9.46833 6.53644 9.30471 6.97493 9.05145C7.09956 8.56154 7.13473 8.05316 7.07875 7.55076C7.07875 6.47479 7.07875 5.25725 7.93763 4.56825C8.34077 4.26973 8.83318 4.11669 9.3345 4.13409C9.90504 4.1595 10.4713 4.24492 11.024 4.38892C11.4301 4.508 11.8477 4.58393 12.2698 4.61544C12.3512 4.62732 12.4338 4.62732 12.5152 4.61544C12.843 4.24248 13.1018 3.81425 13.2797 3.35071C13.7516 2.40688 14.2802 1.26484 15.3656 1.01945C15.504 0.978899 15.6464 0.953581 15.7903 0.943939C16.7084 1.07078 17.5583 1.49906 18.2065 2.16148C18.5874 2.51872 19.0326 2.80054 19.5184 2.99205C20.0064 2.80484 20.4524 2.52251 20.8304 2.16148C21.4786 1.49906 22.3285 1.07078 23.2466 0.943939C23.3832 0.944939 23.5192 0.960763 23.6524 0.991131C24.7378 1.23653 25.2664 2.34081 25.7383 3.31295C25.9156 3.78173 26.178 4.2137 26.5122 4.58713C26.5904 4.59965 26.67 4.59965 26.7482 4.58713C27.1794 4.56012 27.6065 4.48735 28.0224 4.37005C28.5718 4.22607 29.1349 4.14065 29.7024 4.11521C30.2228 4.09734 30.7332 4.26082 31.1464 4.57769C32.0053 5.26668 31.9959 6.46535 31.9959 7.55076C31.9358 8.05256 31.9678 8.56113 32.0903 9.05145C32.5289 9.29511 33.0089 9.45513 33.506 9.52336C34.5537 9.75932 35.7429 10.033 36.2242 11.0335C36.7056 12.034 36.2242 13.1005 35.7146 14.0632C35.4504 14.5068 35.2742 14.997 35.1955 15.5073C35.2521 15.7338 35.9033 16.2529 36.2526 16.536C37.102 17.2061 38.0647 17.9706 38.0647 19.0938C38.0647 20.217 37.1209 20.9815 36.2526 21.661C35.9033 21.9347 35.2521 22.4538 35.1955 22.6804C35.2742 23.1906 35.4504 23.6809 35.7146 24.1244C36.1771 25.0683 36.7056 26.1725 36.2242 27.1541C35.7429 28.1357 34.5537 28.4189 33.506 28.6643C33.0089 28.7325 32.5289 28.8925 32.0903 29.1362C31.9486 29.6197 31.8974 30.1253 31.9393 30.6274C31.9577 31.1706 31.9229 31.7144 31.8354 32.2508C31.776 32.769 31.5192 33.2444 31.1185 33.5783C30.7178 33.9122 30.2039 34.079 29.6835 34.0441C29.1153 34.02 28.5516 33.9314 28.0035 33.7798C27.5864 33.6697 27.1597 33.6002 26.7293 33.5722C26.6512 33.5597 26.5715 33.5597 26.4933 33.5722C26.1577 33.9696 25.9014 34.4278 25.7383 34.9219C25.2664 35.8657 24.7378 36.9983 23.6524 37.2437C23.5175 37.2583 23.3815 37.2583 23.2466 37.2437C22.3285 37.1168 21.4786 36.6886 20.8304 36.0261C20.4524 35.6651 20.0064 35.3828 19.5184 35.1956C19.2542 35.1956 18.5746 35.7147 18.216 36.0261C17.568 36.6973 16.7142 37.1326 15.7903 37.2626Z" fill="#EA9380"/>
<path d="M15.7903 36.3187C16.9323 36.3187 18.3292 34.2706 19.509 34.2706C20.6982 34.2706 22.0951 36.3187 23.2371 36.3187H23.4353C24.6434 36.0356 24.9926 33.3173 26.0969 32.7888C26.2978 32.6967 26.518 32.6546 26.7387 32.6661C27.6259 32.6661 28.8057 33.138 29.6929 33.138C29.9824 33.154 30.2688 33.0708 30.5046 32.9021C30.735 32.6933 30.8824 32.4085 30.9199 32.0998C31.1464 31.005 30.7783 29.2683 31.3729 28.5793C32.128 27.6355 34.8557 27.8903 35.3937 26.7672C35.9316 25.644 34.0251 23.7091 34.2988 22.501C34.5725 21.2929 37.1303 20.3774 37.1303 19.1221C37.1303 17.8668 34.5536 16.923 34.2988 15.7432C34.044 14.5634 35.9222 12.5625 35.3937 11.4677C34.8651 10.3728 32.128 10.6182 31.3729 9.66494C30.6179 8.71167 31.4579 6.09726 30.5046 5.33276C30.2682 5.16598 29.9815 5.08596 29.6929 5.10624C28.8152 5.10624 27.6259 5.57816 26.7387 5.57816C26.5184 5.58489 26.2992 5.543 26.0969 5.45546C25.0021 4.90804 24.6529 2.1898 23.4448 1.88778H23.2466C22.1045 1.88778 20.7076 3.93589 19.5184 3.93589C18.3292 3.93589 16.9323 1.88778 15.7903 1.88778H15.6015C14.384 2.17093 14.0348 4.88916 12.9399 5.4177C12.734 5.50429 12.512 5.54612 12.2887 5.5404C11.4015 5.5404 10.2217 5.06849 9.33449 5.06849C9.03438 5.04937 8.73709 5.13622 8.49448 5.31388C7.55065 6.07839 8.40009 8.6928 7.63559 9.64607C6.87109 10.5993 4.14342 10.3351 3.60543 11.4488C3.06745 12.5625 5.0023 14.5162 4.71915 15.7243C4.436 16.9324 1.88766 17.848 1.88766 19.1033C1.88766 20.3585 4.46432 21.3024 4.71915 22.4822C4.97399 23.662 3.09576 25.6629 3.62431 26.7483C4.15286 27.8337 6.88997 27.6072 7.64503 28.5604C8.2302 29.2966 7.88099 30.9766 8.09807 32.0715C8.13335 32.3835 8.28096 32.672 8.51335 32.8832C8.74984 33.0505 9.03569 33.1336 9.32505 33.1191C10.2122 33.1191 11.392 32.6472 12.2792 32.6472C12.5029 32.6367 12.726 32.6788 12.9305 32.7699C14.0253 33.2985 14.3745 36.0167 15.5921 36.2999H15.7809L15.7903 36.3187ZM15.7809 38.1875C15.5748 38.1842 15.3694 38.1621 15.1674 38.1214C13.6384 37.7628 12.9399 36.3282 12.4397 35.29C12.3359 35.0634 12.1849 34.7614 12.0622 34.5538C11.8262 34.5538 11.5053 34.6576 11.2221 34.7237C10.6053 34.8872 9.97221 34.9822 9.33449 35.0068C8.59193 35.0415 7.86345 34.7958 7.29353 34.3185C6.72361 33.8413 6.35385 33.1673 6.2576 32.4301C6.15768 31.8442 6.11658 31.2498 6.1349 30.6557C6.1349 30.3915 6.1349 30.0423 6.1349 29.7969C5.89894 29.7213 5.55916 29.6458 5.31377 29.5892C4.18117 29.3344 2.63329 28.9852 1.95373 27.5789C1.27417 26.1725 1.95373 24.7474 2.4634 23.728C2.57666 23.4921 2.72767 23.1617 2.82205 22.9352C2.64273 22.7653 2.37845 22.5577 2.18969 22.4067C1.25529 21.7082 0 20.6795 0 19.1033C0 17.5271 1.25529 16.5266 2.16137 15.7998C2.35958 15.6488 2.62385 15.4412 2.80318 15.2713C2.70879 15.0448 2.55778 14.7239 2.44452 14.4879C1.94429 13.4497 1.25529 12.0245 1.93485 10.6277C2.61441 9.23078 4.16229 8.87213 5.29489 8.61729C5.54973 8.56066 5.88007 8.48516 6.11602 8.40965C6.11602 8.16425 6.11602 7.81504 6.11602 7.5602C6.11602 6.39929 6.11602 4.81365 7.33357 3.84151C7.89989 3.40431 8.60051 3.17744 9.31561 3.1997C9.95333 3.22435 10.5864 3.31931 11.2033 3.48285C11.4864 3.54892 11.8073 3.62443 12.0433 3.65274C12.166 3.4451 12.317 3.13363 12.4208 2.90711C12.9494 1.88778 13.6478 0.415401 15.1768 0.0661832C15.3781 0.0209463 15.5839 -0.00121922 15.7903 0.000114995C16.9287 0.111968 17.993 0.61573 18.8011 1.4253C18.9993 1.58575 19.3013 1.82171 19.5184 1.97272C19.7355 1.82171 20.0375 1.58575 20.2452 1.4253C21.0486 0.614427 22.1104 0.110232 23.2466 0.000114995C23.4529 -0.00180683 23.6588 0.0203659 23.86 0.0661832C25.389 0.415401 26.078 1.85946 26.5783 2.89768C26.6821 3.1242 26.8331 3.43566 26.9558 3.6433C27.1918 3.6433 27.5127 3.53948 27.7958 3.47341C28.4128 3.31054 29.0458 3.2156 29.6835 3.19026C30.4012 3.1697 31.1043 3.39628 31.675 3.83207C32.8925 4.7759 32.8831 6.38985 32.8831 7.54132C32.8831 7.8056 32.8831 8.15481 32.8831 8.40021C33.119 8.47572 33.4588 8.55122 33.7042 8.60785C34.8368 8.86269 36.3847 9.2119 37.0642 10.6182C37.7438 12.0245 37.0642 13.4497 36.5546 14.4785C36.4413 14.7144 36.2903 15.0353 36.1959 15.2619C36.3752 15.4318 36.6395 15.6394 36.8377 15.7904C37.7815 16.5172 38.9991 17.5176 38.9991 19.0938C38.9991 20.67 37.7532 21.7082 36.866 22.4067C36.6773 22.5577 36.413 22.7653 36.2337 22.9352C36.328 23.1617 36.4791 23.4921 36.5923 23.728C37.0926 24.7568 37.7815 26.182 37.102 27.5789C36.4224 28.9757 34.9217 29.3344 33.742 29.5892C33.4966 29.6458 33.1568 29.7213 32.9208 29.7969C32.9208 30.0423 32.9208 30.3915 32.9208 30.6463C32.9398 31.2529 32.8987 31.8599 32.7981 32.4585C32.668 33.1974 32.28 33.8662 31.7033 34.3461C31.1362 34.7819 30.4361 35.0086 29.7212 34.9879C29.0836 34.9626 28.4506 34.8676 27.8336 34.7048C27.5504 34.6387 27.2295 34.5632 26.9936 34.5349C26.8709 34.7425 26.7199 35.054 26.616 35.2805C26.1158 36.3282 25.4268 37.7628 23.8978 38.112C23.6958 38.1531 23.4904 38.1752 23.2843 38.1781C22.1422 38.0919 21.0666 37.6076 20.2452 36.8095C20.0375 36.6491 19.7355 36.4037 19.5184 36.2621C19.3013 36.4037 18.9993 36.6491 18.8011 36.8095C17.9888 37.6087 16.925 38.1022 15.7903 38.2064L15.7809 38.1875Z" fill="black"/>
<path d="M19.5183 32.2886C26.8004 32.2886 32.7036 26.3853 32.7036 19.1033C32.7036 11.8212 26.8004 5.91794 19.5183 5.91794C12.2363 5.91794 6.33301 11.8212 6.33301 19.1033C6.33301 26.3853 12.2363 32.2886 19.5183 32.2886Z" fill="black"/>
<path d="M19.5185 25.5685L15.1958 28.5605L14.8465 23.3222L9.81592 21.8121L13.6951 18.2633L11.7413 13.3931L16.9324 14.2142L19.5185 9.64609L22.114 14.2142L27.3051 13.3931L25.3419 18.2633L29.2588 21.8121L24.2282 23.3222L23.879 28.5605L19.5185 25.5685Z" fill="white"/>
</svg>
