<svg width="217" height="44" viewBox="0 0 217 44" fill="none" xmlns="http://www.w3.org/2000/svg">
<path d="M21.2657 43.1821L25.1171 5.09948C25.3339 3.14677 25.7138 2.82088 26.3648 2.82088H26.7443V0.651411H20.5059V2.82088H20.8858C21.7536 2.82088 22.1875 3.41791 22.0791 5.09948L19.8549 27.884L17.3055 5.09948C17.088 3.30953 17.5219 2.82088 18.4992 2.82088H18.6072V0.651411H9.92745V2.82088H10.3621C11.1759 2.82088 11.1759 3.14677 11.3387 5.09948L11.9897 10.9048L9.98183 29.3488L7.70399 5.09948C7.43247 3.14677 7.81237 2.82088 8.68015 2.82088H8.78815V0.651411H0V2.82088H0.434274C1.35644 2.82088 1.41044 3.14677 1.62758 5.09948L5.53338 43.1821H11.1755L13.3997 23.598L15.678 43.1821H21.2657ZM58.6441 18.2281C58.6441 15.57 58.6441 14.6474 60.3257 14.6474C61.465 14.6474 61.465 15.0813 61.465 17.3055V40.0357C61.465 40.8499 61.1934 41.0123 60.7595 41.0123H60.4888V43.1817H69.2226V41.0123H68.8427C68.2464 41.0123 68.0836 40.7947 68.0836 39.927V16.1126C68.0836 12.2061 67.2698 10.6869 63.418 10.6869C61.1934 10.6869 59.5666 11.3923 58.5357 13.8329C58.101 11.6634 56.9621 10.6869 53.9789 10.6869C51.5375 10.6869 50.2354 11.4467 49.2593 13.8329V10.6869L41.7728 11.2839V13.4534H42.0979C42.5862 13.4534 42.9657 13.8329 42.9657 15.0273V39.7638C42.9657 40.7404 42.749 41.0123 42.0979 41.0123H41.7728V43.1817H50.1271V41.0123H49.8019C49.3676 41.0123 49.2593 40.8495 49.2593 40.1981V18.2281C49.2593 15.57 49.2045 14.6474 50.8861 14.6474C52.0254 14.6474 52.0254 15.0813 52.0254 17.3055V40.0357C52.0254 40.8499 51.7543 41.0123 51.3744 41.0123H50.9949V43.1817H59.5666V41.0123H59.4579C58.8616 41.0123 58.6441 40.7947 58.6441 39.927V18.2281ZM119.675 43.1821H130.146V41.0126H129.44C128.518 41.0126 128.247 40.6324 128.247 38.734V22.3507H133.78V38.7337C133.78 40.632 133.509 41.0123 132.641 41.0123H131.827V43.1817H142.243V41.0123H141.376C140.452 41.0123 140.29 40.632 140.29 38.7337V5.09948C140.29 3.14677 140.452 2.82088 141.376 2.82088H142.243V0.651411H131.827V2.82088H132.641C133.509 2.82088 133.78 3.14677 133.78 5.09948V19.8001H128.247V5.09948C128.247 3.14677 128.518 2.82088 129.44 2.82088H130.146V0.651411H119.675V2.82088H120.598C121.466 2.82088 121.737 3.14677 121.737 5.09948V39.8182C121.737 40.7407 121.466 41.0126 120.598 41.0126H119.675V43.1821ZM198.772 43.1821H207.072V41.0126H206.801C206.259 41.0126 206.204 40.8499 206.204 40.1985V18.2281C206.204 15.57 206.259 14.6474 207.94 14.6474C209.187 14.6474 209.187 15.0813 209.187 17.3055V40.0357C209.187 40.8499 208.971 41.0123 208.592 41.0123H208.211V43.1817H217V41.0123H216.62C216.023 41.0123 215.915 40.7947 215.915 39.927V16.1126C215.915 12.2061 214.939 10.6869 211.141 10.6869C208.646 10.6869 207.235 11.4467 206.204 13.8329V0L198.23 0.651411V2.82088H199.044C199.586 2.82088 199.912 3.14677 199.912 4.34046V39.7638C199.912 40.7404 199.748 41.0123 199.044 41.0123H198.772V43.1821ZM32.9835 43.5616C39.9281 43.5616 40.9043 37.7571 40.9043 27.1242C40.9043 16.4378 39.8733 10.6869 32.9835 10.6869C26.0945 10.6869 25.0639 16.4378 25.0639 27.1242C25.0635 37.7571 26.0401 43.5616 32.9835 43.5616ZM85.5519 43.1821H93.9062V41.0126H93.5259C93.0388 41.0126 93.0388 40.8499 93.0388 40.1985V18.2281C93.0388 15.57 93.0388 14.6474 94.7736 14.6474C95.9673 14.6474 96.022 15.0813 96.022 17.3055V40.0357C96.022 40.8499 95.6969 41.0123 95.3706 41.0123H94.9904V43.1817H103.779V41.0123H103.4C102.803 41.0123 102.641 40.7947 102.641 39.927V16.1126C102.641 12.2061 101.718 10.6869 97.8656 10.6869C95.4258 10.6869 93.9602 11.4467 93.0388 13.8329V10.6869L85.0093 11.2839V13.4534H85.8774C86.3661 13.4534 86.7449 13.8329 86.7449 15.0273V39.7638C86.7449 40.7404 86.5289 41.0123 85.8774 41.0123H85.5523V43.1821H85.5519ZM162.532 43.5616C165.408 43.5616 166.493 42.1519 167.089 40.4696C167.631 42.965 168.228 43.5616 171.483 43.5616C175.28 43.5616 175.769 41.2838 175.715 36.8349H173.924C173.924 40.0361 173.87 40.3612 173.273 40.3612C172.731 40.3612 172.731 40.0901 172.731 38.2994V17.1972C172.731 12.9115 171.321 10.6872 166.33 10.6872C162.37 10.6872 158.464 11.8809 158.68 16.1662C158.789 18.1197 159.549 20.1808 161.61 20.072C163.508 19.9637 164.376 18.9335 164.376 17.3595C164.376 16.275 163.562 14.4843 162.261 13.5077C162.749 13.291 163.508 13.0731 164.756 13.0731C166.168 13.0731 166.438 14.1584 166.438 16.2199V22.1328C159.223 24.5741 157.704 25.5507 157.704 34.6103C157.704 41.121 159.278 43.5616 162.532 43.5616ZM150.11 43.5616C155.48 43.5616 156.727 41.9344 156.456 33.0379H154.231C154.231 40.0901 154.015 40.6324 151.52 40.6324C148.536 40.6324 148.536 39.3303 148.536 27.2338V26.2565H157.215C157.215 14.0512 155.859 10.6876 150.109 10.6876C144.901 10.6876 142.189 13.8888 142.189 27.3418C142.189 40.1441 144.25 43.6164 150.11 43.5616ZM78.0107 43.5616C83.2737 43.5616 84.7382 41.9344 84.5206 33.0379H82.2975C82.2975 40.0901 81.972 40.6324 79.4219 40.6324C76.2211 40.6324 76.3839 39.3303 76.3839 27.2338V26.2565H84.7925C84.7925 14.0512 83.6536 10.6876 78.0111 10.6876C72.75 10.6876 70.0371 13.8888 70.0371 27.3418C70.0367 40.1441 72.0978 43.6164 78.0107 43.5616ZM176.91 43.1821H185.59V41.0126H184.938C184.395 41.0126 184.178 40.7407 184.178 39.8733V0L176.095 0.651411V2.82088H177.018C177.56 2.82088 177.777 3.03764 177.777 3.90618V39.9817C177.777 40.7951 177.723 41.0126 177.343 41.0126H176.909V43.1821H176.91ZM113.545 43.5616C117.506 43.5616 119.568 40.9575 119.568 37.0525C119.568 27.8844 111.267 22.5678 111.267 16.0035C111.267 13.996 111.972 13.3994 113.383 13.3994C115.444 13.3994 115.77 14.2675 116.149 17.3595L116.474 20.3972H118.861V10.958H116.963C116.854 12.1524 116.584 12.586 116.474 12.4228C115.878 11.7178 114.467 10.6872 112.135 10.6872C108.663 10.6872 105.625 12.2604 105.625 17.4139C105.625 25.4427 113.871 31.5731 113.871 37.7031C113.871 40.3612 113.275 40.7951 111.376 40.7951C109.477 40.7951 108.989 39.9277 108.61 35.9132L108.338 33.2543H105.843V43.1821H108.012C108.176 42.0968 108.556 41.3922 108.88 41.7173C109.585 42.5315 110.344 43.5616 113.545 43.5616ZM187.216 36.4558C187.216 41.6089 187.976 43.5616 193.075 43.5616C196.656 43.5616 197.47 42.1519 197.47 38.1918V32.8204H195.3V38.4629C195.3 40.3612 195.137 40.578 194.432 40.578C193.727 40.578 193.564 40.3612 193.564 38.6796V13.3994H197.524V10.958H193.618V2.82088H191.395C189.821 10.0366 188.465 10.958 186.349 10.958H185.753V13.345H187.217V36.4558H187.216ZM32.9835 40.7947C31.4655 40.7947 31.4655 39.9273 31.4655 27.1242C31.4655 14.2675 31.4655 13.3994 32.9835 13.3994C34.5027 13.3994 34.5027 14.2675 34.5027 27.1242C34.5027 39.9817 34.5027 40.7947 32.9835 40.7947ZM104.54 12.3152C109.964 8.29988 111.05 5.26224 109.259 2.49574C108.282 0.976926 106.058 0.000380247 104.431 1.35644C102.477 2.98364 102.966 5.80527 106.601 7.43285C105.949 8.19188 104.431 9.65746 103.183 10.9051L104.54 12.3152ZM165.137 39.7638C163.835 39.7638 163.835 38.4085 163.835 34.1228C163.835 26.3108 163.835 25.2799 166.438 23.8695V37.2688C166.438 39.2759 166.168 39.7638 165.137 39.7638ZM76.3835 23.9782C76.4919 13.8333 76.655 13.3454 78.0655 13.3454C79.4215 13.3454 79.3135 13.8884 79.3135 23.9782H76.3835ZM148.537 23.9782C148.7 13.8333 148.808 13.3454 150.218 13.3454C151.629 13.3454 151.411 13.8884 151.411 23.9782H148.537Z" fill="#E4244D"/>
</svg>
