<svg width="132" height="24" viewBox="0 0 132 24" fill="none" xmlns="http://www.w3.org/2000/svg">
<path d="M0.201172 0.21167H24.8654V23.5778H0.201172V0.21167ZM26.9207 0.21167H51.5849V23.5778H26.9207V0.21167ZM53.6403 0.21167H78.3045V23.5778H53.6403V0.21167ZM80.3598 0.21167H105.024V23.5778H80.3598V0.21167ZM107.079 0.21167H131.744V23.5778H107.079V0.21167Z" fill="#00B67A"/>
<path d="M12.5331 15.9598L16.2841 15.0592L17.8513 19.6351L12.5331 15.9598ZM21.1656 10.0452H14.5628L12.5331 4.15503L10.5034 10.0452H3.90063L9.24455 13.6962L7.21489 19.5864L12.5588 15.9354L15.8474 13.6962L21.1656 10.0452ZM39.2527 15.9598L43.0037 15.0592L44.5709 19.6351L39.2527 15.9598ZM47.8851 10.0452H41.2823L39.2527 4.15503L37.223 10.0452H30.6202L35.9641 13.6962L33.9344 19.5864L39.2784 15.9354L42.5669 13.6962L47.8851 10.0452ZM65.9722 15.9598L69.7232 15.0592L71.2904 19.6351L65.9722 15.9598ZM74.6047 10.0452H68.0019L65.9722 4.15503L63.9426 10.0452H57.3397L62.6836 13.6962L60.654 19.5864L65.9979 15.9354L69.2865 13.6962L74.6047 10.0452ZM92.6918 15.9598L96.4428 15.0592L98.01 19.6351L92.6918 15.9598ZM101.324 10.0452H94.7214L92.6918 4.15503L90.6621 10.0452H84.0593L89.4032 13.6962L87.3735 19.5864L92.7175 15.9354L96.006 13.6962L101.324 10.0452ZM119.411 15.9598L123.162 15.0592L124.73 19.6351L119.411 15.9598ZM128.044 10.0452H121.441L119.411 4.15503L117.382 10.0452H110.779L116.123 13.6962L114.093 19.5864L119.437 15.9354L122.726 13.6962L128.044 10.0452Z" fill="white"/>
</svg>
