<svg width="135" height="34" viewBox="0 0 135 34" fill="none" xmlns="http://www.w3.org/2000/svg">
<path d="M36.2982 11.0294L49.7153 11.0294L49.7153 13.7156L44.4324 13.7156L44.4324 28.8581L41.5368 28.8581L41.5368 13.7156L36.2761 13.7156L36.2982 11.0294ZM49.1406 15.9501L51.6162 15.9501L51.6162 18.4461L51.6604 18.4461C51.7488 18.0896 51.9035 17.7568 52.1246 17.424C52.3456 17.0912 52.6109 16.7821 52.9424 16.5206C53.2519 16.2354 53.6055 16.0215 54.0034 15.855C54.3792 15.6886 54.777 15.5936 55.1749 15.5936C55.4844 15.5936 55.7054 15.6173 55.8159 15.6173C55.9265 15.6411 56.0591 15.6649 56.1696 15.6649L56.1696 18.3986C55.9928 18.3511 55.7938 18.3273 55.5949 18.3035C55.396 18.2797 55.2191 18.256 55.0202 18.256C54.5781 18.256 54.1581 18.3511 53.7603 18.5412C53.3624 18.7314 53.0308 19.0167 52.7214 19.3732C52.434 19.7536 52.1909 20.2053 52.0141 20.752C51.8372 21.2987 51.7488 21.9406 51.7488 22.6537L51.7488 28.7868L49.0964 28.7868L49.1406 15.9501ZM68.3267 28.8581L65.7185 28.8581L65.7185 27.0515L65.6743 27.0515C65.3427 27.7171 64.8564 28.2163 64.2154 28.6204C63.5744 29.0245 62.9113 29.2147 62.2482 29.2147C60.6788 29.2147 59.5294 28.8106 58.8221 27.9548C58.1147 27.1228 57.7611 25.8391 57.7611 24.1513L57.7611 15.9501L60.4135 15.9501L60.4135 23.8661C60.4135 25.0071 60.6125 25.8153 61.0324 26.267C61.4303 26.7424 62.005 26.9801 62.7344 26.9801C63.287 26.9801 63.7512 26.8851 64.127 26.6949C64.5027 26.5047 64.8122 26.267 65.0332 25.958C65.2764 25.6489 65.4311 25.2686 65.5416 24.8407C65.6521 24.4128 65.6964 23.9374 65.6964 23.4382L65.6964 15.9501L68.3488 15.9501L68.3488 28.8581L68.3267 28.8581ZM72.8359 24.7218C72.9243 25.5539 73.2117 26.1244 73.7201 26.481C74.2284 26.8138 74.8473 26.9801 75.5547 26.9801C75.7978 26.9801 76.0852 26.9564 76.3946 26.9088C76.7041 26.8613 77.0135 26.79 77.2788 26.6711C77.5661 26.5523 77.7872 26.3859 77.964 26.1481C78.1408 25.9104 78.2292 25.6252 78.2071 25.2686C78.185 24.912 78.0745 24.603 77.8314 24.3653C77.5882 24.1276 77.3009 23.9612 76.9472 23.7948C76.5936 23.6521 76.1736 23.5333 75.7094 23.4382C75.2452 23.3431 74.781 23.2242 74.2948 23.1054C73.8085 22.9865 73.3222 22.8439 72.858 22.6775C72.3938 22.5111 71.996 22.2971 71.6202 21.9881C71.2665 21.7029 70.9571 21.3463 70.7581 20.8946C70.5371 20.443 70.4266 19.92 70.4266 19.2544C70.4266 18.5412 70.5813 17.9707 70.9129 17.4953C71.2223 17.0199 71.6423 16.6395 72.1286 16.3543C72.6149 16.069 73.1675 15.8551 73.7643 15.7362C74.3611 15.6173 74.9358 15.5698 75.4663 15.5698C76.0852 15.5698 76.682 15.6411 77.2346 15.7837C77.7872 15.9264 78.3177 16.1403 78.7597 16.4731C79.2239 16.7821 79.5997 17.21 79.887 17.7092C80.1965 18.2084 80.3733 18.8265 80.4617 19.5396L77.6987 19.5396C77.5661 18.8503 77.2788 18.3986 76.8367 18.1609C76.3725 17.9232 75.8641 17.8043 75.2673 17.8043C75.0905 17.8043 74.8474 17.8281 74.6042 17.8519C74.339 17.8994 74.1179 17.947 73.8748 18.042C73.6537 18.1371 73.4548 18.2798 73.3001 18.4462C73.1454 18.6126 73.0569 18.8503 73.0569 19.1355C73.0569 19.4921 73.1675 19.7536 73.3885 19.9675C73.6095 20.1815 73.8969 20.3479 74.2727 20.5143C74.6263 20.6569 75.0463 20.7758 75.5105 20.8709C75.9746 20.9659 76.4609 21.0848 76.9472 21.2037C77.4335 21.3225 77.8977 21.4651 78.3619 21.6315C78.826 21.7979 79.246 22.0119 79.5997 22.3209C79.9533 22.6062 80.2628 22.9628 80.4838 23.3906C80.7049 23.8185 80.8154 24.3653 80.8154 24.9833C80.8154 25.744 80.6607 26.3859 80.3291 26.9326C79.9975 27.4556 79.5776 27.9072 79.0692 28.24C78.5608 28.5728 77.964 28.8106 77.3451 28.977C76.7041 29.1196 76.0852 29.2147 75.4663 29.2147C74.7147 29.2147 74.0074 29.1196 73.3664 28.9294C72.7254 28.7392 72.1507 28.454 71.6865 28.0974C71.2223 27.7171 70.8465 27.2654 70.5813 26.6949C70.3161 26.1481 70.1613 25.4825 70.1392 24.6981L72.8138 24.6981L72.8138 24.7218L72.8359 24.7218ZM81.5669 15.9501L83.5784 15.9501L83.5784 12.0516L86.2308 12.0516L86.2308 15.9264L88.6181 15.9264L88.6181 18.042L86.2308 18.042L86.2308 24.9358C86.2308 25.2448 86.2529 25.4825 86.275 25.7203C86.2971 25.9342 86.3635 26.1244 86.4298 26.267C86.5182 26.4096 86.6508 26.5285 86.8055 26.5998C86.9824 26.6711 87.2034 26.7187 87.5129 26.7187C87.6897 26.7187 87.8886 26.7187 88.0655 26.6949C88.2423 26.6711 88.4412 26.6474 88.6181 26.5998L88.6181 28.8106C88.3307 28.8581 88.0434 28.8819 87.756 28.9056C87.4687 28.9532 87.2034 28.9532 86.894 28.9532C86.1866 28.9532 85.634 28.8819 85.2141 28.7393C84.7941 28.5966 84.4625 28.3827 84.2194 28.1212C83.9762 27.8359 83.8215 27.5031 83.7331 27.099C83.6447 26.6949 83.6005 26.1957 83.5784 25.6727L83.5784 18.0658L81.5669 18.0658L81.5669 15.9026L81.5669 15.9501ZM90.4748 15.9501L92.9725 15.9501L92.9725 17.7092L93.0167 17.7092C93.3925 16.9485 93.9009 16.4256 94.564 16.0928C95.2271 15.76 95.9344 15.5936 96.7302 15.5936C97.6806 15.5936 98.4985 15.76 99.2058 16.1403C99.9131 16.4969 100.488 16.9723 100.952 17.6141C101.416 18.2322 101.77 18.9691 101.991 19.8011C102.212 20.6331 102.345 21.5365 102.345 22.4635C102.345 23.3431 102.234 24.1751 102.035 24.9833C101.814 25.7916 101.505 26.5285 101.085 27.1466C100.665 27.7646 100.134 28.2638 99.471 28.6442C98.8079 29.0245 98.0564 29.2147 97.1722 29.2147C96.7965 29.2147 96.3986 29.1671 96.0228 29.0958C95.6471 29.0245 95.2713 28.9057 94.9177 28.7393C94.564 28.5729 94.2324 28.3589 93.9451 28.0974C93.6356 27.8359 93.3925 27.5269 93.1936 27.1941L93.1493 27.1941L93.1493 33.6362L90.4969 33.6362L90.4969 15.9501L90.4748 15.9501ZM99.7363 22.416C99.7363 21.8455 99.67 21.275 99.5153 20.7282C99.3826 20.1815 99.1616 19.706 98.8742 19.2782C98.5869 18.8503 98.2332 18.5175 97.8354 18.256C97.4154 17.9945 96.9291 17.8756 96.3986 17.8756C95.2934 17.8756 94.4535 18.2798 93.8788 19.1118C93.3262 19.9438 93.0388 21.061 93.0388 22.4398C93.0388 23.1054 93.1051 23.6997 93.2599 24.2464C93.4146 24.7932 93.6135 25.2686 93.923 25.6727C94.2103 26.0768 94.564 26.3859 94.984 26.6236C95.4039 26.8613 95.8681 26.9802 96.4207 26.9802C97.0396 26.9802 97.5259 26.8375 97.9459 26.576C98.3659 26.3146 98.6974 25.958 98.9848 25.5539C99.25 25.126 99.4489 24.6505 99.5595 24.1038C99.67 23.5333 99.7363 22.9865 99.7363 22.416ZM104.4 11.0294L107.053 11.0294L107.053 13.7156L104.4 13.7156L104.4 11.0294ZM104.4 15.9501L107.053 15.9501L107.053 28.8581L104.4 28.8581L104.4 15.9501ZM109.418 11.0294L112.07 11.0294L112.07 28.8581L109.418 28.8581L109.418 11.0294ZM120.16 29.2147C119.21 29.2147 118.348 29.0483 117.596 28.6917C116.845 28.3351 116.226 27.8835 115.695 27.2892C115.187 26.6949 114.789 25.958 114.524 25.126C114.259 24.294 114.104 23.3669 114.104 22.3922C114.104 21.4176 114.236 20.5143 114.524 19.6823C114.789 18.8503 115.187 18.1371 115.695 17.5191C116.204 16.9248 116.845 16.4493 117.596 16.1165C118.348 15.7837 119.21 15.5936 120.16 15.5936C121.111 15.5936 121.973 15.76 122.724 16.1165C123.476 16.4493 124.095 16.9248 124.625 17.5191C125.134 18.1134 125.531 18.8503 125.797 19.6823C126.062 20.5143 126.217 21.4176 126.217 22.3922C126.217 23.3906 126.084 24.294 125.797 25.126C125.509 25.958 125.134 26.6711 124.625 27.2892C124.117 27.8835 123.476 28.3589 122.724 28.6917C121.973 29.0245 121.133 29.2147 120.16 29.2147ZM120.16 26.9564C120.735 26.9564 121.265 26.8138 121.685 26.5523C122.128 26.2908 122.459 25.9342 122.746 25.5063C123.034 25.0784 123.233 24.5792 123.365 24.0563C123.498 23.5095 123.564 22.9628 123.564 22.3922C123.564 21.8455 123.498 21.2987 123.365 20.752C123.233 20.2053 123.034 19.7298 122.746 19.3019C122.459 18.874 122.105 18.5412 121.685 18.2798C121.243 18.0183 120.735 17.8756 120.16 17.8756C119.586 17.8756 119.055 18.0183 118.635 18.2798C118.193 18.5412 117.861 18.8978 117.574 19.3019C117.287 19.7298 117.088 20.2053 116.955 20.752C116.823 21.2987 116.756 21.8455 116.756 22.3922C116.756 22.9628 116.823 23.5095 116.955 24.0562C117.088 24.603 117.287 25.0784 117.574 25.5063C117.861 25.9342 118.215 26.2908 118.635 26.5523C119.077 26.8375 119.586 26.9564 120.16 26.9564ZM127.012 15.9501L129.024 15.9501L129.024 12.0516L131.676 12.0516L131.676 15.9264L134.064 15.9264L134.064 18.042L131.676 18.042L131.676 24.9358C131.676 25.2448 131.698 25.4825 131.721 25.7203C131.743 25.9342 131.809 26.1244 131.875 26.267C131.964 26.4096 132.096 26.5285 132.251 26.5998C132.428 26.6711 132.649 26.7187 132.958 26.7187C133.135 26.7187 133.334 26.7187 133.511 26.6949C133.688 26.6711 133.887 26.6474 134.064 26.5998L134.064 28.8106C133.776 28.8581 133.489 28.8819 133.202 28.9057C132.914 28.9532 132.649 28.9532 132.339 28.9532C131.632 28.9532 131.08 28.8819 130.66 28.7393C130.24 28.5966 129.908 28.3827 129.665 28.1212C129.422 27.8359 129.267 27.5031 129.179 27.099C129.09 26.6949 129.046 26.1957 129.024 25.6727L129.024 18.0658L127.012 18.0658L127.012 15.9026L127.012 15.9501Z" fill="black"/>
<path d="M33.3269 12.7225L20.5945 12.7225L16.675 0.694582L12.7324 12.7225L-1.0495e-06 12.6995L10.2972 20.142L6.3546 32.17L16.6519 24.7274L26.9491 32.17L23.0297 20.142L33.3269 12.7225Z" fill="#00B67A"/>
<path d="M24.0691 23.2569L23.3926 21.0612L18.5146 24.7641L24.0691 23.2569Z" fill="#005128"/>
</svg>
